<?xml version="1.0" standalone="no"?><!DOCTYPE svg PUBLIC "-//W3C//DTD SVG 1.1//EN" "http://www.w3.org/Graphics/SVG/1.1/DTD/svg11.dtd"><svg t="1632976295449" class="icon" viewBox="0 0 1024 1024" version="1.1" xmlns="http://www.w3.org/2000/svg" p-id="3181" xmlns:xlink="http://www.w3.org/1999/xlink" width="128" height="128"><defs><style type="text/css"></style></defs><path d="M768 0a256 256 0 0 1 255.872 248L1024 256v454.048l-325.12-106.688 2.656-4.128 7.296-12.288 6.176-11.296 7.296-14.176 5.312-11.104 5.664-12.352 5.92-13.632 6.08-14.912 6.24-16.192 2.944-7.968 5.28-15.104 4.608-14.016 3.936-12.864 3.36-11.744 2.816-10.56 2.272-9.408 1.824-8.192 2.016-10.016 1.472-9.024 0.512-4.064-214.368-1.76V307.136l259.648-1.76V254.848h-259.648V139.84h-127.2v115.008H198.784v50.56l242.208-1.76v76.672H246.72v40.064h399.872l-1.504 8.96-3.072 14.464-2.272 9.28-2.88 10.368-3.456 11.36c-1.28 3.936-2.656 8-4.16 12.16l-2.304 6.304-4.608 11.936-4.512 11.456-10.368 25.344-11.648 27.04-8.96-2.976-41.344-13.024-26.304-7.776-21.984-6.208-23.392-6.24-24.352-6.144-16.544-3.872-16.64-3.68-16.544-3.392-16.384-3.04-16.064-2.624-7.872-1.152-15.328-1.92c-12.48-1.312-24.32-2.08-35.072-2.08-98.944 0-219.264 38.816-230.912 151.36-11.648 112.576 56 173.536 151.36 196.032 95.36 22.464 183.36-0.288 260.064-36.864 18.784-8.96 37.504-20.736 55.04-33.408l10.336-7.68 12-9.376 5.792-4.704 11.104-9.312 10.4-9.12 9.6-8.736 8.736-8.192 11.2-10.944 11.008-11.2 6.624-7.072L1024 880l-2.272 7.68a195.936 195.936 0 0 1-178.656 136.16l-8 0.16H256a256 256 0 0 1-255.872-248L0 768V256A256 256 0 0 1 248 0.128L256 0h512zM267.392 566.72c38.08-2.432 80.448 5.12 120.48 16.48l15.84 4.736c7.872 2.432 15.584 5.024 23.136 7.68l14.848 5.376 14.24 5.504 20.096 8.256 12.384 5.376 16.896 7.68 9.92 4.704 19.712 9.792 13.024 6.912-5.888 6.592-7.04 7.52-6.176 6.272-7.232 7.136-8.256 7.808-9.28 8.352-10.176 8.768c-47.936 40.288-122.976 88.992-205.28 88.992-112.256 0-153.568-42.976-165.6-84.928l-1.728-6.976a110.336 110.336 0 0 1-2.048-13.696l-0.352-6.656-0.064-3.232c0-48.32 29.184-100.864 148.544-108.48z" p-id="3182"></path></svg>