<?xml version="1.0" standalone="no"?><!DOCTYPE svg PUBLIC "-//W3C//DTD SVG 1.1//EN" "http://www.w3.org/Graphics/SVG/1.1/DTD/svg11.dtd"><svg t="1637735288297" class="icon" viewBox="0 0 1024 1024" version="1.1" xmlns="http://www.w3.org/2000/svg" p-id="3533" xmlns:xlink="http://www.w3.org/1999/xlink" width="128" height="128"><defs><style type="text/css"></style></defs><path d="M609.52381 48.761905c132.36419 0 240.103619 105.496381 243.712 236.982857L853.333333 292.571429v560.761904a24.380952 24.380952 0 0 0 23.966477 24.380953l3.267047-0.170667A24.380952 24.380952 0 0 0 902.095238 853.333333a48.761905 48.761905 0 1 1 97.52381 0 121.904762 121.904762 0 0 1-121.904762 121.904762H365.714286c-132.36419 0-240.103619-105.496381-243.712-236.982857L121.904762 731.428571V390.095238a97.52381 97.52381 0 0 1-97.52381-97.523809C24.380952 160.207238 129.877333 52.46781 261.36381 48.859429L268.190476 48.761905h341.333334z m85.333333 124.976762l-1.462857 1.048381c-13.848381 10.24-25.84381 22.893714-35.376762 37.302857a145.286095 145.286095 0 0 0-23.942095 73.240381L633.904762 292.571429a97.52381 97.52381 0 0 1-92.647619 97.401904L536.380952 390.095238H219.428571v341.333333a146.285714 146.285714 0 0 0 140.8 146.188191L365.714286 877.714286h392.533333a122.12419 122.12419 0 0 1-2.31619-19.090286L755.809524 853.333333V292.571429a146.090667 146.090667 0 0 0-60.952381-118.832762zM585.142857 658.285714a48.761905 48.761905 0 0 1 3.657143 97.401905L585.142857 755.809524h-195.047619a48.761905 48.761905 0 0 1-3.657143-97.401905L390.095238 658.285714h195.047619zM268.190476 146.285714a146.285714 146.285714 0 0 0-146.18819 140.8L121.904762 292.571429h414.47619l0.170667-9.020953A242.858667 242.858667 0 0 1 585.142857 146.285714H268.190476z" p-id="3534"></path></svg>