<?xml version="1.0" standalone="no"?><!DOCTYPE svg PUBLIC "-//W3C//DTD SVG 1.1//EN" "http://www.w3.org/Graphics/SVG/1.1/DTD/svg11.dtd"><svg class="icon" width="128px" height="128.00px" viewBox="0 0 1024 1024" version="1.1" xmlns="http://www.w3.org/2000/svg"><path fill="#d8d8d8" d="M527.68 16l29.344 0.288 27.2 0.576 25.792 0.864 23.936 1.216 22.72 1.504 10.88 0.896a60.992 60.992 0 0 1-10.624 121.568l-19.84-1.536-21.44-1.28-23.04-0.928-24.8-0.64-26.656-0.416-28.64-0.128-29.888 0.128-19.008 0.288-18.336 0.416-17.6 0.608-16.96 0.736-16.32 0.96-15.616 1.152-14.976 1.344-14.528 1.6-13.536 1.76-19.424 3.104-12.416 2.432c-84.256 17.856-125.6 54.624-146.528 131.2l-2.08 8.064-2.656 11.616-3.008 15.52-2.56 16.128-1.792 13.728-1.6 14.368-1.344 14.976-1.152 15.648-0.96 16.32-0.768 16.96-0.608 17.6-0.416 18.304-0.352 28.8-0.064 30.176 0.256 29.6 0.352 18.816 0.512 18.144 0.704 17.408 0.864 16.768 1.088 16.064 1.28 15.392 1.504 14.752 1.696 14.08 1.952 13.472 2.208 12.832 2.496 12.48c17.088 78.88 51.104 119.52 118.816 141.248l7.68 2.336 11.328 3.072 11.392 2.656 18.624 3.616 20.032 3.04 21.44 2.496 15.136 1.408 15.776 1.184 16.448 0.96 17.088 0.8 17.824 0.608 18.464 0.448 29.056 0.352h40.352l28.8-0.32 18.272-0.448 17.6-0.576 16.96-0.768 16.256-0.96 15.616-1.152 14.944-1.344 14.336-1.568 20.288-2.752 18.912-3.296 12.096-2.56 11.2-2.752 5.216-1.408 10.72-3.264c64.8-21.12 98.528-59.68 115.936-133.504l1.92-8.64 3.2-16.8 2.336-14.912 1.824-13.76 1.568-14.336 1.344-15.04 1.152-15.648 0.96-16.32 0.736-16.96 0.832-26.752 0.352-18.688 0.192-19.392 0.064-20.096v-14.528l-0.288-27.552-0.704-31.872-1.12-29.056-1.248-21.408c-0.448-6.88-0.96-13.536-1.504-19.968a60.992 60.992 0 0 1 120.96-15.264l0.576 4.768 0.896 10.944 1.504 22.528 0.64 11.968 1.024 24.704 0.416 13.12 0.544 27.232 0.288 29.12v27.008l-0.416 33.888-0.608 21.664-0.384 10.72-0.96 20.8-1.248 20.128-1.504 19.36-0.864 9.664-1.984 18.56-2.24 17.792-1.28 8.96-2.72 16.864c-26.176 150.624-93.536 228.576-229.664 262.88l-9.6 2.336-15.68 3.392-16.64 3.136-16.864 2.72-8.928 1.28-17.92 2.24-18.528 1.952-19.136 1.664-19.776 1.376-20.416 1.088-21.056 0.832-32.864 0.8-22.72 0.224h-23.296l-22.784-0.224-22.08-0.48-21.44-0.704-20.8-0.96-20.128-1.28-19.52-1.504-23.36-2.304-22.496-2.784-8.96-1.28-16.864-2.72c-150.656-26.24-228.736-93.76-263.136-230.016l-2.336-9.6-3.392-15.68-1.6-8.192-1.536-8.512-2.72-16.864-1.28-8.928-2.272-17.92-2.4-23.136-1.952-24.32-0.64-10.048-1.12-20.416-0.832-21.088-0.608-21.728-0.32-22.4-0.128-23.104 0.128-23.136 0.32-22.336 0.288-11.04 0.704-21.44 1.568-30.88 1.376-19.84 1.664-19.008 0.96-9.504 2.08-18.08 1.184-8.96 1.28-8.896 2.72-16.864c29.12-166.816 108.8-244.896 278.912-272.768l10.304-1.6 17.472-2.4 9.216-1.12 18.56-1.952 19.168-1.664 19.776-1.376 20.448-1.088 21.088-0.832L478.08 16.224 500.864 16h26.816z m432.48 47.84c20.864 20.896 23.584 53.408 6.976 77.792l-3.328 4.48-3.648 4-450.016 450.016a60.992 60.992 0 0 1-86.272 0 61.056 61.056 0 0 1-6.976-77.76l3.328-4.48 3.648-4.032L873.92 63.84a60.992 60.992 0 0 1 86.272 0z" /></svg>