<?xml version="1.0" standalone="no"?><!DOCTYPE svg PUBLIC "-//W3C//DTD SVG 1.1//EN" "http://www.w3.org/Graphics/SVG/1.1/DTD/svg11.dtd"><svg t="1632314626519" class="icon" viewBox="0 0 1024 1024" version="1.1" xmlns="http://www.w3.org/2000/svg" p-id="2873" xmlns:xlink="http://www.w3.org/1999/xlink" width="128" height="128"><defs><style type="text/css"></style></defs><path d="M681.63200001 864.192a63.904 63.904 0 0 1-79.00800001 4.032l-4.352-3.392-4.32-4.032-4.288-4.736-254.72-302.4-2.944-3.776c-13.856-19.264-15.808-44.864-5.376-66.56l2.656-4.896 3.072-4.704 3.936-5.024 254.68800001-302.24 3.00799998-3.296a63.776 63.776 0 0 1 87.68000001-3.328c22.4 19.52 28.48 51.744 15.424 78.336l-2.688 4.896-2.944 4.47999999-3.744 4.73600001-218.848 259.744L688.96 773.28l2.752 3.52A65.408 65.408 0 0 1 681.6 864.224z" p-id="2874"></path></svg>