<?xml version="1.0" standalone="no"?><!DOCTYPE svg PUBLIC "-//W3C//DTD SVG 1.1//EN" "http://www.w3.org/Graphics/SVG/1.1/DTD/svg11.dtd"><svg class="icon" width="128px" height="128.00px" viewBox="0 0 1024 1024" version="1.1" xmlns="http://www.w3.org/2000/svg"><path fill="#d8d8d8" d="M342.368 159.808a63.904 63.904 0 0 1 79.008-4.032l4.352 3.392 4.32 4.032 4.288 4.736 254.72 302.4 2.944 3.776c13.856 19.264 15.808 44.864 5.376 66.56l-2.656 4.896-3.072 4.704-3.936 5.024-254.688 302.24-3.008 3.296a63.776 63.776 0 0 1-87.68 3.328c-22.4-19.52-28.48-51.744-15.424-78.336l2.688-4.896 2.944-4.48 3.744-4.736 218.848-259.744L335.04 250.72l-2.752-3.52A65.408 65.408 0 0 1 342.4 159.776z" /></svg>