<?xml version="1.0" standalone="no"?><!DOCTYPE svg PUBLIC "-//W3C//DTD SVG 1.1//EN" "http://www.w3.org/Graphics/SVG/1.1/DTD/svg11.dtd"><svg t="1631173754436" class="icon" viewBox="0 0 1024 1024" version="1.1" xmlns="http://www.w3.org/2000/svg" p-id="2759" xmlns:xlink="http://www.w3.org/1999/xlink" width="128" height="128"><defs><style type="text/css"></style></defs><path d="M95.624703 2.454367a95.624703 95.624703 0 0 1 34.329268 6.374981l6.470605 2.773116 18.264318 8.606223a250.887346 250.887346 0 0 0 95.943452 23.746801l11.092466 0.255H796.872524a223.124307 223.124307 0 0 1 222.996808 215.47433l0.127499 7.649976V525.935866c0 86.82723-28.910535 166.896982-77.679133 231.093032a191.249406 191.249406 0 0 1-351.261409 151.40578h-162.147621a191.281281 191.281281 0 0 1-351.261409-151.46953 380.395068 380.395068 0 0 1-77.45601-219.426818L0 525.935866V98.07907a95.624703 95.624703 0 0 1 95.624703-95.624703zM254.999208 764.997623a63.749802 63.749802 0 1 0 0 127.499604 63.749802 63.749802 0 0 0 0-127.499604z m509.998415 0a63.749802 63.749802 0 1 0 0 127.499604 63.749802 63.749802 0 0 0 0-127.499604zM127.467729 147.007043L127.499604 525.935866c0 49.087348 13.865582 94.923455 37.931132 133.842709a191.345031 191.345031 0 0 1 274.825396 121.124624h139.516442a191.345031 191.345031 0 0 1 274.793521-121.188374 252.991089 252.991089 0 0 0 37.739883-124.025239L892.497227 525.935866V267.334794a95.624703 95.624703 0 0 0-90.01472-95.465328L796.872524 171.710092H261.724812c-38.154256 0-75.989764-5.769357-112.263401-17.053072l-13.514958-4.462487-8.478724-3.18749zM637.498019 350.623911a63.749802 63.749802 0 1 1 0 127.499604h-254.999207a63.749802 63.749802 0 1 1 0-127.499604h254.999207z" p-id="2760"></path></svg>