<?xml version="1.0" standalone="no"?><!DOCTYPE svg PUBLIC "-//W3C//DTD SVG 1.1//EN" "http://www.w3.org/Graphics/SVG/1.1/DTD/svg11.dtd"><svg class="icon" width="128px" height="128.00px" viewBox="0 0 1024 1024" version="1.1" xmlns="http://www.w3.org/2000/svg"><path fill="#d8d8d8" d="M512 170.666667c200.021333 0 483.555556 182.471111 483.555556 355.555555S712.021333 881.777778 512 881.777778 28.444444 699.306667 28.444444 526.222222 311.978667 170.666667 512 170.666667z m0 82.062222c-160.938667 0-402.972444 156.728889-402.972444 273.493333S351.061333 799.715556 512 799.715556c160.938667 0 402.972444-156.728889 402.972444-273.493334S672.938667 252.728889 512 252.728889z m0 54.698667c118.698667 0 214.926222 97.962667 214.926222 218.794666S630.698667 745.016889 512 745.016889s-214.926222-97.962667-214.926222-218.794667 96.227556-218.794667 214.926222-218.794666z m0 82.033777c-74.183111 0-134.314667 61.240889-134.314667 136.760889 0 14.990222 2.360889 29.411556 6.741334 42.922667A172.487111 172.487111 0 0 1 512 512.540444c50.318222 0 95.658667 21.76 127.573333 56.576 4.380444-13.482667 6.741333-27.875556 6.741334-42.894222 0-75.52-60.131556-136.760889-134.314667-136.760889z" /></svg>