<?xml version="1.0" standalone="no"?><!DOCTYPE svg PUBLIC "-//W3C//DTD SVG 1.1//EN" "http://www.w3.org/Graphics/SVG/1.1/DTD/svg11.dtd"><svg class="icon" width="128px" height="128.00px" viewBox="0 0 1024 1024" version="1.1" xmlns="http://www.w3.org/2000/svg"><path fill="#d8d8d8" d="M704 16c161.664 0 294.4 126.4 303.52 286.656l0.352 8.64 0.128 8.704v384c0 161.664-126.4 294.4-286.656 303.52l-8.64 0.352L704 1008H320c-161.664 0-294.4-126.4-303.52-286.656l-0.352-8.64L16 704V320C16 158.336 142.4 25.6 302.656 16.48l8.64-0.352L320 16h384z m0 128H320a176 176 0 0 0-175.456 162.08l-0.416 7.04L144 320v384a176 176 0 0 0 162.08 175.456l7.04 0.416 6.88 0.128h384a176 176 0 0 0 175.456-162.08l0.416-7.04L880 704V320A176 176 0 0 0 704 144zM496 576a64 64 0 1 1 0 128h-128a64 64 0 1 1 0-128h128z m160-256a64 64 0 0 1 4.8 127.84L656 448h-288a64 64 0 0 1-4.8-127.84L368 320h288z" /></svg>