<?xml version="1.0" encoding="UTF-8"?>
<svg width="130px" height="119px" viewBox="0 0 130 119" version="1.1" xmlns="http://www.w3.org/2000/svg" xmlns:xlink="http://www.w3.org/1999/xlink">
    <title>已领取</title>
    <defs>
        <filter id="filter-1">
            <feColorMatrix in="SourceGraphic" type="matrix" values="0 0 0 0 1.000000 0 0 0 0 1.000000 0 0 0 0 1.000000 0 0 0 1.000000 0"></feColorMatrix>
        </filter>
    </defs>
    <g id="页面-1" stroke="none" stroke-width="1" fill="none" fill-rule="evenodd" opacity="0.905412946">
        <g id="已领取" transform="translate(-560.000000, -860.000000)" filter="url(#filter-1)">
            <g transform="translate(560.000000, 860.000000)">
                <path d="M98.2086261,75.7100108 C97.8564708,75.5126876 97.4403124,75.463469 97.0518423,75.5731992 C96.6633721,75.6829294 96.3344662,75.9426045 96.1375916,76.2950108 L96.1331088,76.3039763 C93.0871581,81.7612089 88.6305137,86.2995236 83.2294882,89.4440625 C77.8513734,92.5833208 71.7237928,94.2082546 65.4968157,94.1464763 C64.6514553,94.1396238 63.9596058,94.817446 63.9491433,95.6627694 C63.9312124,96.5032867 64.5991433,97.1981142 65.4396605,97.2149246 L65.4497468,97.2149246 C72.2266376,97.2838081 78.8956047,95.5154862 84.7480226,92.0978556 C90.6263976,88.6743999 95.4769772,83.7344105 98.7925054,77.7944935 C99.2049766,77.0576888 98.9445265,76.1260786 98.2097468,75.7100108 L98.2086261,75.7100108 Z M34.454833,41.7374246 C35.1666653,42.176553 36.0996795,41.95584 36.5393157,41.2443211 L36.5505226,41.2241487 C39.5700228,36.2795809 43.771657,32.1634429 48.7772468,29.2462177 C53.7650357,26.3378503 59.4016742,24.7246851 65.1729364,24.55389 C66.0180867,24.527656 66.6832053,23.8234717 66.6612122,22.9782004 C66.6458771,22.139302 65.9535651,21.4715721 65.1146605,21.4865625 L65.1034537,21.4865625 C58.8690572,21.6580281 52.6996606,23.4231142 47.259833,26.5913039 C41.8118055,29.7665017 37.2391969,34.247065 33.9538847,39.6294073 C33.512115,40.3498161 33.7360926,41.2918248 34.454833,41.7363039 L34.454833,41.7374246 Z M123.453281,58.6518699 C122.606897,58.6413739 121.910868,59.3163716 121.895523,60.1626832 C121.504402,80.1143211 111.01923,97.9949246 93.8480226,107.99708 C76.6768157,117.998114 56.0841433,118.217769 38.7605226,108.584321 C38.4056794,108.38827 37.9873509,108.341665 37.5980605,108.454814 C37.2087701,108.567963 36.8805976,108.831541 36.6861261,109.187252 C36.2759536,109.926907 36.5404364,110.859321 37.2767295,111.273976 C46.0318524,116.135247 55.8827099,118.681858 65.896902,118.672794 C76.1960399,118.655959 86.3875916,115.882252 95.3676778,110.650873 C104.349829,105.419641 111.804228,97.9258298 116.988023,88.9162177 C122.004137,80.1662403 124.740274,70.2957245 124.945389,60.2119935 C124.965599,59.3718036 124.301313,58.6739018 123.461126,58.6531142 L123.453281,58.6531142 L123.453281,58.6518699 Z M8.55569508,59.2631623 C9.40062938,59.2816609 10.1033425,58.6169322 10.1313847,57.7722521 C10.780264,38.1377694 21.2575916,20.5373383 38.1620743,10.6920798 C55.0643157,0.846821143 75.4115571,0.493803857 92.5917295,9.74509694 C93.3335695,10.1417365 94.2564872,9.86235325 94.6537985,9.12087287 L94.6582812,9.11302806 C95.0575273,8.36813025 94.7807326,7.44064265 94.0385399,7.03639003 C85.3367085,2.35772417 75.5971742,-0.0552877521 65.7175916,0.0197521289 C55.5574192,0.103803857 45.5037124,2.87639003 36.6424192,8.03716596 C27.7767975,13.202564 20.3976259,20.5728562 15.2215571,29.4322521 C10.2154834,38.0324452 7.4192856,47.7394333 7.08310878,57.6848383 C7.0509181,58.523699 7.7045299,59.229981 8.54336742,59.2631623 L8.55457434,59.2631623 L8.55569508,59.2631623 Z M36.0506951,18.9683729 C36.1093336,19.2529204 36.3250957,19.4791227 36.6065571,19.5511315 L39.7332813,20.3445798 L40.8461261,23.3872521 C40.9442153,23.6614923 41.1908357,23.8552187 41.4805043,23.8855718 C41.7701729,23.9159249 42.0515948,23.7775297 42.204402,23.5295798 L43.9336261,20.7805281 L47.1589709,20.6449246 C47.451333,20.633754 47.7118396,20.4571358 47.8304447,20.1896788 C47.9490498,19.9222219 47.9050664,19.6105761 47.7170743,19.38639 L45.6628503,16.8928556 L46.5437122,13.76389 C46.6218359,13.4834552 46.5351065,13.1829378 46.3195743,12.9872521 C46.1043593,12.7923063 45.7968548,12.7370686 45.5272468,12.8449246 L42.5282812,14.0552694 L39.8475916,12.2565625 C39.6066857,12.0951059 39.2948154,12.0851018 39.0440571,12.2307867 C38.7916099,12.3785544 38.6441518,12.6561227 38.6630226,12.9480281 L38.8647468,16.1868211 L36.3275054,18.2040625 C36.0977437,18.3857128 35.9905378,18.6817226 36.0506951,18.9683729 L36.0506951,18.9683729 Z M21.5220743,33.6494073 C21.5801482,33.9346447 21.7967367,34.1612565 22.0790571,34.232166 L25.2057813,35.0256142 L26.3163847,38.0694073 C26.415565,38.3433195 26.6626209,38.5364129 26.9523798,38.5664867 C27.2421387,38.5965605 27.5235834,38.4583198 27.676902,38.2106142 L29.4050054,35.4604418 L32.6292295,35.325959 C32.8597422,35.6032308 33.2519855,35.6830427 33.5725196,35.5178955 C33.8930537,35.3527483 34.0557439,34.9870207 33.9637667,34.638372 C33.8717895,34.2897233 33.5498612,34.0518433 33.1895743,34.0663039 L31.1319882,31.5727694 L32.0139709,28.4438039 C32.3421963,28.3100969 32.5343911,27.9672323 32.4771793,27.6174662 C32.4199674,27.2677002 32.1285462,27.0039414 31.7748254,26.9817816 C31.4211046,26.9596219 31.0990433,27.1849474 30.9986261,27.5248383 L27.9996605,28.7351832 L25.3189709,26.9375969 C25.0776712,26.7757598 24.765071,26.7661816 24.5143157,26.9129418 C24.262996,27.0601521 24.1157129,27.3360914 24.1332813,27.6268211 L24.3361261,30.8678556 L21.7966433,32.8850969 C21.5687817,33.0675458 21.4626711,33.3624899 21.5220743,33.6482867 L21.5220743,33.6494073 Z M67.3750916,15.1905281 C67.5703418,15.0762421 67.7057494,14.8821823 67.7456319,14.6594867 C67.7855144,14.4367912 67.7258712,14.2077997 67.5824192,14.0328556 L65.524833,11.5393211 L66.4079364,8.41259694 C66.487257,8.13147254 66.4004107,7.82968162 66.1837985,7.63371769 C65.9685996,7.4393671 65.6611382,7.38536536 65.3925916,7.49475213 L62.3936261,8.70285559 L59.7129364,6.90526941 C59.4718542,6.74308177 59.1592494,6.73306794 58.9082813,6.87949349 C58.6562251,7.02763617 58.5089055,7.30494372 58.5272468,7.59673497 L58.7300916,10.8366487 L56.1917295,12.8527694 C55.9629866,13.0345873 55.856676,13.3300872 55.9171605,13.615959 C55.9752344,13.9011964 56.191823,14.1278082 56.4741433,14.1987177 L59.5997468,14.9932867 L60.7103503,18.035959 C60.8095036,18.310322 61.0569849,18.5036908 61.3471832,18.5335466 C61.6373814,18.5634024 61.9190499,18.4244728 62.0719882,18.1760452 L63.8000916,15.4269935 L67.0254364,15.29139 C67.1485692,15.2874133 67.2687585,15.2527433 67.3750916,15.1905281 L67.3750916,15.1905281 Z M95.3755226,98.7054418 C95.3162563,98.4214543 95.1006719,98.1958731 94.8196605,98.1238039 L91.6929364,97.329235 L90.5812122,94.2865625 C90.4823453,94.0128463 90.2362187,93.8193368 89.946902,93.7878556 C89.6569967,93.7601977 89.3761904,93.8980008 89.2206951,94.144235 L87.4937122,96.8944073 L84.2683674,97.02889 C83.9774922,97.0435194 83.7195947,97.22057 83.6014197,97.4867599 C83.4832446,97.7529498 83.5248996,98.0629867 83.7091433,98.2885452 L85.7667295,100.78208 L84.8847468,103.911045 C84.5562501,104.044659 84.3638651,104.38774 84.4211913,104.737706 C84.4785175,105.087672 84.7703077,105.351443 85.1242659,105.373267 C85.478224,105.395091 85.8002075,105.169163 85.9000916,104.82889 L88.9001778,103.618545 L91.5797468,105.417252 C91.8216493,105.578492 92.1342147,105.588056 92.3855226,105.441907 C92.6368163,105.29358 92.7839413,105.017072 92.7665571,104.725787 L92.5625916,101.485873 L95.1009537,99.4686315 C95.32973,99.2873335 95.4360966,98.9921117 95.3755226,98.7065625 L95.3755226,98.7054418 Z M63.8415571,103.639838 L65.8980226,106.133373 L65.0171605,109.261218 C64.9387122,109.542511 65.0238847,109.843976 65.2401778,110.040097 C65.4552649,110.234579 65.7625984,110.288994 66.0313847,110.180183 L69.0325916,108.970959 L71.7132813,110.768545 C71.9539737,110.930989 72.2666168,110.940582 72.5168157,110.7932 C72.7692629,110.645433 72.9167211,110.367864 72.8978503,110.075959 L72.6961261,106.837166 L75.2322468,104.819925 C75.4573408,104.637942 75.5617491,104.345351 75.5027132,104.061979 C75.4436773,103.778607 75.2311138,103.552052 74.9520743,103.475097 L71.8253503,102.680528 L70.7158674,99.636735 C70.6155114,99.3635502 70.3687164,99.1710674 70.0793157,99.1402694 C69.7902671,99.1124601 69.510213,99.2498861 69.3553503,99.4955281 L67.6261261,102.246821 L64.4007813,102.381304 C64.1099638,102.395141 63.8514826,102.570926 63.7317295,102.836304 C63.6150065,103.103586 63.6573906,103.413682 63.8415571,103.639838 L63.8415571,103.639838 Z M109.903023,84.0255281 C109.962511,84.3110018 109.856346,84.6056644 109.628454,84.7875969 L107.091212,86.8048383 L107.295178,90.0458729 C107.313614,90.3373866 107.166214,90.6144112 106.914143,90.7619935 C106.663319,90.9084824 106.350873,90.8989088 106.109488,90.7373383 L103.427678,88.9375108 L100.427592,90.1478556 C100.158595,90.2563695 99.8512366,90.2015151 99.6363847,90.0066487 C99.4207322,89.8110402 99.3347273,89.510023 99.4144882,89.2300108 L100.29423,86.1010452 L98.2366433,83.6075108 C98.0514131,83.3820356 98.0093405,83.0713106 98.1279411,82.8046963 C98.2465418,82.5380819 98.5054928,82.3612642 98.7969882,82.3478556 L102.022333,82.2133729 L103.750436,79.4620798 C103.905411,79.2160756 104.186225,79.0789241 104.475523,79.1079418 C104.764144,79.1396343 105.009677,79.3325841 105.108712,79.6055281 L106.221557,82.6482004 L109.347161,83.4427694 C109.628341,83.515257 109.843893,83.7412382 109.903023,84.0255281 L109.903023,84.0255281 Z M2.73035026,67.3261315 L103.052247,9.40552806 C104.275587,8.69915073 105.729457,8.50775859 107.093931,8.87346776 C108.458404,9.23917692 109.621675,10.1320209 110.327764,11.3555281 L128.303626,42.4894073 C129.010003,43.7127479 129.201396,45.166618 128.835686,46.5310916 C128.469977,47.8955651 127.577133,49.0588359 126.353626,49.7649246 L26.0317295,107.685528 C24.8083889,108.391905 23.3545188,108.583298 21.9900453,108.217588 C20.6255718,107.851879 19.4623009,106.959035 18.7562122,105.735528 L0.780350264,74.6027694 C0.0736172546,73.3793279 -0.117973898,71.9251866 0.247751387,70.5604428 C0.613476673,69.1956989 1.50653898,68.032224 2.73035026,67.3261315 Z M4.41138471,70.2376832 C3.96005399,70.4979198 3.63065303,70.9268613 3.49570905,71.4300636 C3.36076506,71.933266 3.43134262,72.4694698 3.69190199,72.9206142 L21.667764,104.055614 C21.928188,104.506755 22.3572123,104.835918 22.8603986,104.970648 C23.3635848,105.105377 23.8996865,105.034629 24.3506951,104.773976 L124.672592,46.8533729 C125.123732,46.5929488 125.452895,46.1639245 125.587625,45.6607383 C125.722354,45.157552 125.651606,44.6214503 125.390954,44.1704418 L107.415092,13.0365625 C106.873187,12.0973513 105.672527,11.7752354 104.733281,12.3170798 L4.41138471,70.2365625 L4.41138471,70.2376832 Z" id="形状" fill="#858585" fill-rule="nonzero"></path>
                <path d="M38.6775916,86.051735 L48.5306951,80.3631142 C51.4635399,78.6697521 51.4276778,77.5838039 49.3263847,73.1133729 C50.3013847,73.1413902 51.7190572,72.9127694 52.5472468,72.6202694 C54.9488847,78.0589763 54.7886261,80.1445798 50.0279364,82.8936315 L40.2308674,88.5497521 C35.4432812,91.3133729 33.4372467,91.290959 31.2653503,87.5276832 L23.5628503,74.1881142 L26.2188847,72.65389 L28.6328503,76.8329418 L42.1931951,69.0038039 L38.3581951,62.3614763 L20.8675916,72.45889 L19.4140571,69.9418211 L39.5606951,58.3090625 L47.0704364,71.3169073 L44.414402,72.8500108 L43.6467295,71.5219935 L30.0863847,79.3511315 L33.9370743,86.0214763 C34.927764,87.7361315 35.6887122,87.7764763 38.6775916,86.051735 Z M61.7055226,51.7978556 L65.1650916,49.799666 C65.0129242,48.7287897 64.8056956,47.6664626 64.5442295,46.6169073 L59.5067295,49.5239763 L58.1966433,47.2545798 L70.5130226,40.1449246 L71.8231088,42.4132004 L66.9245743,45.2418211 C67.0758674,46.3356142 67.2753501,47.5112177 67.4344882,48.4895798 L72.6647468,45.4704418 L80.0781088,58.3113039 L77.6988847,59.6852694 L71.3871605,48.7540625 L65.1045743,52.3806142 L71.4319882,63.340959 L69.1345743,64.666735 L61.704402,51.7978556 L61.7055226,51.7978556 Z M62.1100916,53.7769935 L61.5878503,56.5148383 C59.7566433,55.5790625 56.5525916,54.4404418 53.7262122,53.6369073 C53.7486261,56.8712177 53.272333,60.134666 52.329833,63.0406142 C51.6865572,62.820959 50.3932813,62.4982004 49.6155226,62.4298383 C51.0847468,58.5186314 51.3716433,53.5203556 50.719402,49.57889 L53.3451778,48.9490625 C53.4426778,49.6304418 53.5132813,50.3275108 53.5838847,51.0245798 C56.536902,51.7922523 60.1522468,52.8782005 62.1100916,53.7769935 L62.1100916,53.7769935 Z M53.8808674,58.8245798 L54.9107813,56.9014763 C56.5492295,57.2466488 58.4465571,57.848459 59.5224192,58.3707004 L58.537333,60.56389 C57.4289709,59.9856142 55.4240572,59.2616487 53.8808674,58.8245798 L53.8808674,58.8245798 Z M61.6965571,59.5149246 L63.932333,59.5519073 C64.369402,62.8041487 64.3100054,67.045959 64.1060399,70.079666 C65.5024192,70.4539763 66.8326778,70.9033729 67.785264,71.2754418 L66.810264,73.8687177 C64.7325053,72.8903556 60.7551778,71.7550969 57.6968157,71.1230281 L58.6617295,68.8312177 C59.5582812,68.9769073 60.5467295,69.2189763 61.5463847,69.4173383 C61.6842295,67.4180279 61.7032812,64.8975969 61.559833,62.7301832 L54.7796605,66.6447521 L53.5020743,64.4302694 L61.3883674,59.8769073 L61.6965571,59.5149246 L61.6965571,59.5149246 Z M67.8637122,52.3010452 L69.9941433,51.0705281 C75.6312124,61.026735 77.4937985,65.3380281 71.7816433,71.5511315 C71.2683675,71.1095798 70.1532812,70.646735 69.4976778,70.4719073 C74.7649192,64.9581142 73.1287122,61.5489763 67.8637122,52.3010452 L67.8637122,52.3010452 Z M75.2793157,63.0372521 L76.0469882,60.7869073 C78.557333,61.1085452 81.9720743,61.7193211 83.8100054,62.2819073 L83.0882812,64.8023383 C81.2615571,64.1960452 77.8815571,63.4541487 75.2793157,63.0372521 L75.2793157,63.0372521 Z M85.3072468,49.5363039 L87.4959537,53.3275969 C88.6457812,52.4422521 89.8460399,51.4538039 91.1180226,50.4608729 L89.264402,47.2512177 L85.3072468,49.5363039 L85.3072468,49.5363039 Z M82.7139709,35.904235 L78.7556951,38.1893211 L80.7056951,41.565959 L84.6628503,39.2797521 L82.7128503,35.904235 L82.7139709,35.904235 Z M81.9675916,43.7524246 L84.0296605,47.3218211 L87.9856951,45.036735 L85.9258674,41.4673383 L81.9675916,43.7524246 L81.9675916,43.7524246 Z M96.8469882,49.0723383 L94.7232812,50.8889763 L97.8387985,56.2862177 L95.3206088,57.7397521 L92.4762985,52.8143211 C89.8852641,54.9738902 87.4062985,57.0695798 85.4159537,58.7349246 L83.4076778,56.5361315 C83.9680226,56.1024246 84.6124192,55.6194073 85.2568157,55.1375108 L76.2935399,39.6114763 L74.6046605,40.5864763 L73.2631951,38.2610452 L85.7443157,31.0550108 L87.086902,33.3793211 L85.2321605,34.4507004 L93.4131951,48.6195798 L95.4472468,46.9654418 L96.8481088,49.0723383 L96.8469882,49.0723383 Z M97.3490571,30.0004418 L91.7870743,33.2123383 C94.4128501,36.4186314 97.1887985,39.2450108 100.03535,41.364235 C99.7506951,37.8026832 98.8496606,34.0057867 97.3490571,30.0004418 Z M96.9590571,26.8311315 L98.819402,26.3469935 C101.56285,32.696821 102.887505,38.315959 103.013023,43.2615625 C105.680264,44.7487177 108.421471,45.6004418 111.244488,45.6307004 C110.962074,46.4207866 110.670695,47.7712177 110.639316,48.6744935 C107.967591,48.5198383 105.372074,47.7308727 102.904316,46.4611315 C102.612936,49.471304 101.875523,52.2214763 100.693195,54.7116487 C99.9389709,54.2981142 98.7510399,53.8397521 97.8981951,53.7052694 C99.2665572,51.2173384 100.00285,48.2105281 100.141816,44.8081142 C96.4569882,42.3235452 92.9369019,38.7844073 89.4896605,34.5381142 L88.3275054,35.2105281 L86.9042295,32.7461315 L96.5645743,27.1695798 L96.9590571,26.8311315 L96.9590571,26.8311315 Z" id="形状" fill="#858585" fill-rule="nonzero"></path>
            </g>
        </g>
    </g>
</svg>