<?xml version="1.0" standalone="no"?><!DOCTYPE svg PUBLIC "-//W3C//DTD SVG 1.1//EN" "http://www.w3.org/Graphics/SVG/1.1/DTD/svg11.dtd"><svg class="icon" width="128px" height="128.00px" viewBox="0 0 1024 1024" version="1.1" xmlns="http://www.w3.org/2000/svg"><path fill="#d8d8d8" d="M158.4 67.872l350.72 350.72L859.84 67.84a64 64 0 0 1 86.432-3.744l4.064 3.744a64 64 0 0 1 3.744 86.464l-3.744 4.064L158.4 950.336a64 64 0 0 1-94.272-86.4l3.744-4.096 350.72-350.72L67.84 158.4A64 64 0 0 1 158.4 67.84z m452.544 543.04a64 64 0 0 1 86.432-3.712l4.064 3.744 248.896 248.896a64 64 0 0 1-86.4 94.24l-4.096-3.744-248.896-248.896a64 64 0 0 1 0-90.496z" /></svg>