<?xml version="1.0" standalone="no"?><!DOCTYPE svg PUBLIC "-//W3C//DTD SVG 1.1//EN" "http://www.w3.org/Graphics/SVG/1.1/DTD/svg11.dtd"><svg class="icon" width="128px" height="128.00px" viewBox="0 0 1024 1024" version="1.1" xmlns="http://www.w3.org/2000/svg"><path fill="#d8d8d8" d="M928 448a64 64 0 0 1 63.84 59.2L992 512v45.728c0 181.76-127.744 333.056-291.84 338.144l-8.512 0.128H96a64 64 0 0 1-4.8-127.84L96 768h595.648c90.784 0 168.736-88.064 172.224-202.24l0.128-8.032V512a64 64 0 0 1 64-64z m-400-109.664c12.96 0 24.8 5.76 33.44 15.04l3.104 3.616c2.336 2.56 4.352 5.312 6.016 8.32 4.128 7.36 5.824 15.168 5.376 22.784l0.064 3.04v246.4c0 27.424-19.264 50.144-43.648 52.576l-4.352 0.224c-26.4 0-48-23.776-48-52.8V455.04l-16.192 6.656c-26.016 10.656-57.216 2.336-71.84-18.336l-2.56-4.032c-13.216-23.648-1.408-52.16 26.24-63.456l80.576-32.896a63.68 63.68 0 0 1 28.096-4.48l3.68-0.16zM928 128a64 64 0 0 1 4.8 127.84L928 256H332.352c-90.784 0-168.736 88.064-172.224 202.24L160 466.304V512a64 64 0 0 1-127.84 4.8L32 512v-45.728c0-181.76 127.744-333.056 291.84-338.144L332.352 128H928z" /></svg>