<?xml version="1.0" standalone="no"?><!DOCTYPE svg PUBLIC "-//W3C//DTD SVG 1.1//EN" "http://www.w3.org/Graphics/SVG/1.1/DTD/svg11.dtd"><svg class="icon" width="128px" height="128.00px" viewBox="0 0 1024 1024" version="1.1" xmlns="http://www.w3.org/2000/svg"><path fill="#d8d8d8" d="M512 0c282.784 0 512 229.216 512 512s-229.216 512-512 512S0 794.784 0 512 229.216 0 512 0z m0 128C299.936 128 128 299.936 128 512s171.936 384 384 384 384-171.936 384-384S724.064 128 512 128z m282.848 202.176a64 64 0 0 1 3.744 86.432l-3.744 4.064-294.176 294.176a64 64 0 0 1-94.24-86.432l3.744-4.096 294.144-294.144a64 64 0 0 1 90.528 0zM311.104 435.072l3.712 3.392 77.568 77.568c22.72 22.72 19.808 61.024-4.832 85.664-23.36 23.36-58.944 27.2-81.92 8.224l-3.744-3.36L224.32 528.96c-22.72-22.72-19.808-60.992 4.832-85.632 23.36-23.36 58.944-27.2 81.952-8.256z" /></svg>