<?xml version="1.0" standalone="no"?><!DOCTYPE svg PUBLIC "-//W3C//DTD SVG 1.1//EN" "http://www.w3.org/Graphics/SVG/1.1/DTD/svg11.dtd"><svg class="icon" width="128px" height="128.00px" viewBox="0 0 1024 1024" version="1.1" xmlns="http://www.w3.org/2000/svg"><path fill="#d8d8d8" d="M886.897778 249.571556a79.530667 79.530667 0 1 0-112.469334-112.526223L512 399.587556 249.571556 137.102222a79.530667 79.530667 0 0 0-106.837334-5.12l-5.688889 5.12a79.530667 79.530667 0 0 0-5.404444 106.439111l5.404444 6.087111L399.530667 512l-262.485334 262.371556a79.530667 79.530667 0 1 0 112.526223 112.526222L886.897778 249.571556z m0 637.383111a79.530667 79.530667 0 0 0 0-112.526223l-149.959111-149.959111a79.530667 79.530667 0 0 0-112.469334 112.469334l149.959111 150.016a79.530667 79.530667 0 0 0 112.526223 0z" /></svg>