<?xml version="1.0" standalone="no"?><!DOCTYPE svg PUBLIC "-//W3C//DTD SVG 1.1//EN" "http://www.w3.org/Graphics/SVG/1.1/DTD/svg11.dtd"><svg class="icon" width="128px" height="128.00px" viewBox="0 0 1024 1024" version="1.1" xmlns="http://www.w3.org/2000/svg"><path fill="#d8d8d8" d="M524.525715 0.160615l8.766625 0.159975c102.639898 3.519448 183.65119 64.149936 204.543912 158.183185 5.215182 23.452321 6.814931 49.752195 5.119197 79.347552l-0.31995 5.535132-0.44793 5.599121-1.279799 12.861983 8.766625-1.119825 5.087202-0.511919 10.078419-0.671895 9.406524-0.223965c93.425344 0 143.433499 15.517566 192.993724 64.789836 62.038268 61.686323 70.292973 148.264741 38.234002 301.00878-8.446675 40.217691-22.204517 87.826222-41.401505 143.401503l-5.375157 15.357591-10.558343 29.179423-11.454203 30.459221-12.542033 32.218946c-33.72271 80.243412-121.900877 144.297363-204.767877 148.104766l-7.998745 0.159975H186.690713c-100.688205 0-182.787325-82.291091-186.530738-185.250939L0 831.294231v-350.34504c0-103.951693 79.763487-188.642407 179.523837-192.545794l7.166876-0.12798h75.188205c18.461104 0.031995 58.6468-44.377038 66.965495-86.130488 24.892095-124.68444 95.984942-202.208279 195.681302-202.016309zM313.742782 495.026983c-34.810539 0-63.350062 27.835633-65.845671 63.158092l-0.19197 5.087202v136.522583c0 37.690087 29.563362 68.245294 66.037641 68.245294 34.842534 0 63.350062-27.835633 65.90966-63.158092l0.159975-5.119197V563.272277c0-37.690087-29.563362-68.245294-66.069635-68.245294z"  /></svg>