<?xml version="1.0" standalone="no"?><!DOCTYPE svg PUBLIC "-//W3C//DTD SVG 1.1//EN" "http://www.w3.org/Graphics/SVG/1.1/DTD/svg11.dtd"><svg class="icon" width="128px" height="128.00px" viewBox="0 0 1024 1024" version="1.1" xmlns="http://www.w3.org/2000/svg"><path fill="#d8d8d8" d="M361.31136 96.352L293.69536 239.68l-151.456 23.04a166.24 166.24 0 0 0-92.896 47.264 170.88 170.88 0 0 0-0.832 239.392l112.896 115.232-26.592 162.368a171.2 171.2 0 0 0 18.016 108.512c44.032 82.144 145.44 112.576 226.496 67.936L512.03136 930.4l132.64 73.024a165.12 165.12 0 0 0 107.104 18.24c91.008-15.296 152.544-102.464 137.408-194.688l-26.56-162.368 112.896-115.232a170.112 170.112 0 0 0 46.624-94.112c13.728-92.48-49.152-178.656-140.384-192.544l-151.456-23.04-67.52-143.328A168.16 168.16 0 0 0 583.96736 16.576c-83.232-40.32-182.944-4.576-222.72 79.776z m165.344 35.04c6.976 3.392 12.64 9.12 16 16.256l68.512 146.144a135.904 135.904 0 0 0 102.272 77.056l153.728 23.52c18.496 2.816 31.264 20.384 28.48 39.264a34.752 34.752 0 0 1-9.472 19.2l-114.56 117.504a139.68 139.68 0 0 0-37.568 119.904l26.976 165.568a34.464 34.464 0 0 1-27.872 39.712 33.376 33.376 0 0 1-21.76-3.712l-134.624-74.464a133.504 133.504 0 0 0-129.472 0L312.67136 891.808a33.6 33.6 0 0 1-45.984-13.856 35.072 35.072 0 0 1-3.68-22.144l27.008-165.568a139.68 139.68 0 0 0-37.536-119.904l-114.592-117.504a34.976 34.976 0 0 1 0.16-48.832c5.12-5.184 11.712-8.544 18.88-9.632l153.696-23.52a135.904 135.904 0 0 0 102.24-77.056l68.576-146.144a33.632 33.632 0 0 1 45.216-16.256z" /></svg>