<?xml version="1.0" standalone="no"?><!DOCTYPE svg PUBLIC "-//W3C//DTD SVG 1.1//EN" "http://www.w3.org/Graphics/SVG/1.1/DTD/svg11.dtd"><svg t="1566356656513" class="icon" viewBox="0 0 1024 1024" version="1.1" xmlns="http://www.w3.org/2000/svg" p-id="7540" xmlns:xlink="http://www.w3.org/1999/xlink" width="48" height="48"><defs><style type="text/css"></style></defs><path d="M512 0C229.226667 0 0 229.226667 0 512s229.226667 512 512 512 512-229.226667 512-512S794.773333 0 512 0z m0 938.666667C276.736 938.666667 85.333333 747.264 85.333333 512S276.736 85.333333 512 85.333333s426.666667 191.402667 426.666667 426.666667-191.402667 426.666667-426.666667 426.666667z m0-768C323.776 170.666667 170.666667 323.776 170.666667 512h85.333333c0-141.162667 114.837333-256 256-256V170.666667z m0 170.666666a170.666667 170.666667 0 1 0 0 341.333334 170.666667 170.666667 0 0 0 0-341.333334z m0 256c-47.061333 0-85.333333-38.272-85.333333-85.333333s38.272-85.333333 85.333333-85.333333 85.333333 38.272 85.333333 85.333333-38.272 85.333333-85.333333 85.333333z" p-id="7541"></path></svg>