<?xml version="1.0" standalone="no"?><!DOCTYPE svg PUBLIC "-//W3C//DTD SVG 1.1//EN" "http://www.w3.org/Graphics/SVG/1.1/DTD/svg11.dtd"><svg class="icon" width="128px" height="128.00px" viewBox="0 0 1024 1024" version="1.1" xmlns="http://www.w3.org/2000/svg"><path fill="#d8d8d8" d="M480 832a64 64 0 0 1 4.8 127.84L480 960H128a64 64 0 0 1-4.8-127.84L128 832h352z m461.248-111.392a64 64 0 0 1 7.936 86.144l-3.52 4.256-116.16 128a64 64 0 0 1-83.712 9.696l-4.288-3.2-78.08-64a64 64 0 0 1 76.96-102.176l4.16 3.2 31.04 25.344 75.264-82.88a64 64 0 0 1 90.4-4.384zM896 448a64 64 0 0 1 4.8 127.84L896 576H128a64 64 0 0 1-4.8-127.84L128 448h768z m0-384a64 64 0 0 1 4.8 127.84L896 192H128a64 64 0 0 1-4.8-127.84L128 64h768z" /></svg>