<?xml version="1.0" standalone="no"?><!DOCTYPE svg PUBLIC "-//W3C//DTD SVG 1.1//EN" "http://www.w3.org/Graphics/SVG/1.1/DTD/svg11.dtd"><svg t="1636942683047" class="icon" viewBox="0 0 1024 1024" version="1.1" xmlns="http://www.w3.org/2000/svg" p-id="2930" xmlns:xlink="http://www.w3.org/1999/xlink" width="128" height="128"><defs><style type="text/css"></style></defs><path d="M512 0c282.784 0 512 229.216 512 512s-229.216 512-512 512S0 794.784 0 512 229.216 0 512 0z m-41.472 666.784c-31.936-8.544-65.504 13.12-74.976 48.416-9.44 35.264 8.8 70.848 40.736 79.392 31.936 8.576 65.504-13.12 74.976-48.384 9.44-35.296-8.8-70.88-40.736-79.424z m109.984-438.88c-38.304-5.824-75.296 22.112-84.992 63.136l-1.088 5.408-39.552 229.12c-4.544 26.336 8.16 52.48 31.584 61.664 25.376 9.856 54.08-3.616 66.336-30.336l1.92-4.544 80.32-218.24c1.76-4.864 3.264-10.336 4.16-15.648 7.584-43.936-18.656-84.48-58.688-90.56z" p-id="2931"></path></svg>