<?xml version="1.0" standalone="no"?><!DOCTYPE svg PUBLIC "-//W3C//DTD SVG 1.1//EN" "http://www.w3.org/Graphics/SVG/1.1/DTD/svg11.dtd"><svg class="icon" width="128px" height="128.00px" viewBox="0 0 1024 1024" version="1.1" xmlns="http://www.w3.org/2000/svg"><path fill="#d8d8d8" d="M506.4 54.176a64 64 0 0 1-53.44 73.056C266.56 156.16 128 318.496 128 509.344 128 722.944 299.968 896 512 896s384-173.056 384-386.656c0-8.576-0.288-17.152-0.832-25.664a64 64 0 1 1 127.744-8.32c0.736 11.296 1.088 22.624 1.088 33.984C1024 793.536 794.816 1024 512 1024 229.184 1024 0 793.536 0 509.344 0 255.36 184.544 39.36 433.376 0.768a64 64 0 0 1 73.024 53.44z m213.6-14.336c10.176 0 20.032 3.232 28.16 9.152l3.936 3.2 204.608 184.128a48 48 0 0 1-27.04 83.424l-5.056 0.256H832c-172.544 0-250.4 69.408-256.032 226.304A64 64 0 1 1 448 541.696c5.856-162.56 77.12-272.736 207.424-321.376l9.184-3.296 7.36-2.432v-126.72a48 48 0 0 1 38.88-47.168l4.48-0.64 4.64-0.224z" /></svg>