<?xml version="1.0" standalone="no"?><!DOCTYPE svg PUBLIC "-//W3C//DTD SVG 1.1//EN" "http://www.w3.org/Graphics/SVG/1.1/DTD/svg11.dtd"><svg class="icon" width="128px" height="128.00px" viewBox="0 0 1024 1024" version="1.1" xmlns="http://www.w3.org/2000/svg"><path fill="#d8d8d8" d="M512 0c282.7264 0 512 229.2224 512 512s-229.2736 512-512 512S0 794.7776 0 512 229.2736 0 512 0z m301.056 312.832a65.1264 65.1264 0 0 0-85.504-4.608l-5.2224 4.608-315.5456 308.7872-4.7104 5.12a62.4128 62.4128 0 0 0 4.7104 84.48 65.1264 65.1264 0 0 0 85.504 4.5568l5.2224-4.608L813.056 402.432l4.7104-5.12a62.4128 62.4128 0 0 0-4.7104-84.48zM293.376 422.4c-22.8352-17.5104-57.6512-13.4656-80.7936 9.216-23.2448 22.7328-27.392 57.2416-9.3696 79.8208l4.1984 4.608 83.2 81.4592 4.7104 4.096c22.8864 17.5104 57.6512 13.4656 80.8448-9.216 23.2448-22.7328 27.392-57.2416 9.3696-79.8208l-4.1984-4.608L298.1376 426.496l-4.7104-4.096z" /></svg>