<?xml version="1.0" standalone="no"?><!DOCTYPE svg PUBLIC "-//W3C//DTD SVG 1.1//EN" "http://www.w3.org/Graphics/SVG/1.1/DTD/svg11.dtd"><svg class="icon" width="128px" height="128.00px" viewBox="0 0 1024 1024" version="1.1" xmlns="http://www.w3.org/2000/svg"><path fill="#d8d8d8" d="M512 0c282.784 0 512 229.216 512 512s-229.216 512-512 512S0 794.784 0 512 229.216 0 512 0z m6.016 293.216a68.8 68.8 0 0 0-88.64 0.608 68.736 68.736 0 0 0-7.488 96.928l103.84 121.152-103.84 121.216-2.944 3.712-3.744 5.664a68.8 68.8 0 0 0 14.144 87.552c28.8 24.704 72.224 21.376 96.96-7.456l142.176-165.92 3.136-3.936 3.52-5.376a68.8 68.8 0 0 0-6.656-80.16l-142.208-165.92-3.2-3.52z" /></svg>