<?xml version="1.0" standalone="no"?><!DOCTYPE svg PUBLIC "-//W3C//DTD SVG 1.1//EN" "http://www.w3.org/Graphics/SVG/1.1/DTD/svg11.dtd"><svg class="icon" width="128px" height="128.00px" viewBox="0 0 1024 1024" version="1.1" xmlns="http://www.w3.org/2000/svg"><path fill="#d8d8d8" d="M210.88 32h605.216c44.96-0.16 97.408 31.68 131.776 68.48 60.416 64.672 57.344 166.56 0 233.6l-3.36 3.712-196.864 242.624v319.52c0 89.6-86.912 108.352-153.504 82.464l-2.592-1.088-209.984-77.44a64 64 0 0 1-39.456-77.44l1.568-4.736a64 64 0 0 1 77.44-39.456l4.736 1.568 193.792 71.456v-297.536a64 64 0 0 1 11.04-35.904l3.264-4.416 212.096-261.344 2.912-3.36c18.24-19.52 19.712-49.504 5.376-64.864a136.288 136.288 0 0 0-26.56-21.024 91.36 91.36 0 0 0-9.856-5.28l-3.456-1.44c0-0.032 0.064-0.064 0.192-0.064L210.624 160l-0.768 0.224-3.36 1.664-5.248 3.072-6.496 4.16-7.136 4.928a117.824 117.824 0 0 0-16.256 13.76c-15.68 16.768-15.168 46.72 1.76 64.864l132.48 141.696c8.416 9.024 16.704 18.592 24.928 28.672a760 760 0 0 1 48.48 67.008l10.048 15.968 7.296 12.16 1.76 3.104a64 64 0 0 1 8 25.92l0.256 5.472v68.64a64 64 0 0 1-127.84 4.8l-0.16-4.8-0.032-50.976-6.816-10.784a634.24 634.24 0 0 0-40.224-55.68 457.632 457.632 0 0 0-12.864-15.104l-27.616-29.696-111.2-119.008C17.28 273.408 15.584 167.104 77.856 100.384c32.16-34.336 82.688-65.12 125.856-68.16L210.88 32z" /></svg>