<?xml version="1.0" standalone="no"?><!DOCTYPE svg PUBLIC "-//W3C//DTD SVG 1.1//EN" "http://www.w3.org/Graphics/SVG/1.1/DTD/svg11.dtd"><svg class="icon" width="128px" height="128.00px" viewBox="0 0 1024 1024" version="1.1" xmlns="http://www.w3.org/2000/svg"><path fill="#d8d8d8" d="M307.2 460.8a153.6 153.6 0 0 1 153.6 153.6v204.8a153.6 153.6 0 0 1-153.6 153.6H204.8a153.6 153.6 0 0 1-153.6-153.6v-204.8a153.6 153.6 0 0 1 153.6-153.6h102.4z m512 204.8a153.6 153.6 0 0 1 9.0112 306.944L819.2 972.8h-102.4a153.6 153.6 0 0 1-9.0112-306.944L716.8 665.6h102.4z m0-614.4a153.6 153.6 0 0 1 153.344 144.5888L972.8 204.8v204.8a153.6 153.6 0 0 1-144.5888 153.344L819.2 563.2h-102.4a153.6 153.6 0 0 1-153.344-144.5888L563.2 409.6V204.8a153.6 153.6 0 0 1 144.5888-153.344L716.8 51.2h102.4zM307.2 51.2a153.6 153.6 0 1 1 0 307.2H204.8a153.6 153.6 0 1 1 0-307.2h102.4z"  /></svg>