<?xml version="1.0" standalone="no"?><!DOCTYPE svg PUBLIC "-//W3C//DTD SVG 1.1//EN" "http://www.w3.org/Graphics/SVG/1.1/DTD/svg11.dtd"><svg class="icon" width="128px" height="128.00px" viewBox="0 0 1024 1024" version="1.1" xmlns="http://www.w3.org/2000/svg"><path fill="#d8d8d8" d="M512 16C785.92 16 1008 238.08 1008 512c0 273.92-222.08 496-496 496C238.08 1008 16 785.92 16 512 16 238.08 238.08 16 512 16z m0 128C308.768 144 144 308.768 144 512S308.768 880 512 880 880 715.232 880 512 715.232 144 512 144z m0 544a64 64 0 1 1 0 128 64 64 0 0 1 0-128z m0-480a64 64 0 0 1 63.84 59.2L576 272v320a64 64 0 0 1-127.84 4.8L448 592v-320a64 64 0 0 1 64-64z" /></svg>