<?xml version="1.0" standalone="no"?><!DOCTYPE svg PUBLIC "-//W3C//DTD SVG 1.1//EN" "http://www.w3.org/Graphics/SVG/1.1/DTD/svg11.dtd"><svg t="1636942916016" class="icon" viewBox="0 0 1024 1024" version="1.1" xmlns="http://www.w3.org/2000/svg" p-id="2960" xmlns:xlink="http://www.w3.org/1999/xlink" width="128" height="128"><defs><style type="text/css"></style></defs><path d="M656.175756 46.227774c103.574721 56.280182 192.695668 231.260383 240.725686 435.91559l3.133783 13.686317 5.436154 25.453991c32.201218 158.959536 30.538394 298.252986-14.709593 379.091792-100.856644 180.128559-354.213394 152.915812-455.581676-13.046769-15.381118-25.390037-25.485969-51.259734-33.352403-84.420273l-2.55819-11.351968-8.633892-43.489232c-8.378073-38.564715-16.436371-54.617358-39.140308-78.568412a90.1762 90.1762 0 0 0-17.491625-14.070046l-5.979769-3.645421-10.200783-5.72395-12.471177-6.45943-15.125298-7.354796-33.384381-15.796824c-142.747006-69.550793-198.131822-145.241242-192.503803-284.598647l0.47966-9.593212 0.73548-10.328693c23.503371-250.542741 362.751353-389.612349 590.622135-265.731995zM193.846853 315.701121l-0.799434 6.779204-0.575593 8.122254-0.319774 6.491407c-3.229715 76.329997 16.69219 109.618445 95.516423 151.572762l7.802479 4.093104 16.788123 8.378073 33.352403 15.796824 17.075919 8.314117 15.572982 8.090277 13.110724 7.290841c21.648684 12.631064 38.180987 25.262127 52.954535 40.835109 37.221666 39.23624 55.928431 74.507286 69.135087 129.892102l2.398303 10.616489 8.729823 43.809005c5.276267 24.782466 10.96824 40.355449 19.889928 55.001086 54.425494 89.152924 186.428102 103.318902 234.71394 17.107897 25.390037-45.375897 27.436589-152.883835 3.453557-278.363058l-2.398303-12.215358-5.116381-24.142919a1193.491605 1193.491605 0 0 0-7.610615-31.817489l-4.093104-15.668914-6.45943-23.215575a1124.772224 1124.772224 0 0 0-26.157494-79.367848l-7.130955-18.64281-8.186208-20.049815a880.337161 880.337161 0 0 0-11.224059-25.5819l-5.755928-12.215358-8.729823-17.651512c-30.890145-60.245376-64.274526-103.83054-94.653033-120.362843C444.8053 76.8621 214.248419 169.148807 193.814876 315.701121z m386.19077-95.484444c26.669132 15.157276 41.18686 51.099847 33.128562 81.446376-8.314118 31.241896-37.765281 45.663693-65.617576 32.616924l-9.273439-4.828584c-25.262127-12.087448-57.175548-11.895584-96.347834 1.598869-36.582118 12.567109-61.076788 30.474439-74.123557 52.89058l-2.814009 5.276267-4.380901 9.593213c-13.942136 27.244724-45.951489 33.959973-71.693277 14.485751-25.006308-18.930607-35.718729-56.216227-24.015009-84.548182 23.15162-56.18425 68.751358-95.740264 135.39221-118.636065 66.608874-22.959756 126.918205-19.921905 179.74483 10.104851z" p-id="2961"></path></svg>