<?xml version="1.0" standalone="no"?><!DOCTYPE svg PUBLIC "-//W3C//DTD SVG 1.1//EN" "http://www.w3.org/Graphics/SVG/1.1/DTD/svg11.dtd"><svg class="icon" width="128px" height="128.00px" viewBox="0 0 1024 1024" version="1.1" xmlns="http://www.w3.org/2000/svg"><path fill="#d8d8d8" d="M156.103111 345.941333a68.266667 68.266667 0 0 1 48.241778 83.626667 318.577778 318.577778 0 0 0 337.578667 399.644444l11.605333-1.365333-3.584-1.877333a68.266667 68.266667 0 0 1-31.857778-69.575111l1.365333-6.428445a68.266667 68.266667 0 0 1 77.198223-49.664l6.428444 1.365334 169.472 45.454222a68.266667 68.266667 0 0 1 25.144889 119.068444A455.054222 455.054222 0 0 1 72.533333 394.24a68.266667 68.266667 0 0 1 83.569778-48.298667z m473.656889-273.464889a455.054222 455.054222 0 0 1 321.706667 557.283556 68.266667 68.266667 0 1 1-131.811556-35.271111A318.577778 318.577778 0 0 0 481.848889 194.787556l-12.174222 1.308444 4.892444 2.730667a68.266667 68.266667 0 0 1 31.857778 69.575111l-1.422222 6.428444a68.266667 68.266667 0 0 1-77.141334 49.664l-6.428444-1.422222-170.609778-45.738667a68.266667 68.266667 0 0 1-25.258667-118.954666 454.371556 454.371556 0 0 1 404.195556-85.959111z" /></svg>