<?xml version="1.0" standalone="no"?><!DOCTYPE svg PUBLIC "-//W3C//DTD SVG 1.1//EN" "http://www.w3.org/Graphics/SVG/1.1/DTD/svg11.dtd"><svg class="icon" width="128px" height="128.00px" viewBox="0 0 1024 1024" version="1.1" xmlns="http://www.w3.org/2000/svg"><path fill="#d8d8d8" d="M953.92 448.288l3.2-0.224h5.6l6.272 0.576 4.896 0.864 7.36 2.112 6.272 2.56 6.624 3.68 3.872 2.656 4.608 3.744 3.872 3.776 2.656 3.008 1.824 2.24 1.888 2.624 1.632 2.528 2.4 4.256 2.304 4.992 1.76 4.8 1.376 4.992 1.12 6.208 0.448 4.96L1024 512v65.024c0 178.912-121.152 345.248-279.776 350.816L736 928c-43.072 0-84.992 14.144-125.12 38.656l-2.624 1.664-7.296 5.12-26.464 19.2-12.128 8.48-12.032 7.968-8.512 5.248c-8.224 4.8-15.36 8.192-20.16 8.96l-16.128 0.032-4.736-0.256a31.072 31.072 0 0 1-3.712-0.576l-3.584-1.024-4.384-1.504-6.304-2.656-4.16-2.144-1.088-0.64a93.408 93.408 0 0 1-6.944-4.416l-5.76-4.192-13.024-10.24c-14.976-11.744-27.072-20.48-41.216-29.184-36.736-22.688-74.176-36.288-112.928-38.24L288 928C125.536 928 4.16 762.4 0.096 586.048L0 576.896V352C0 160.672 152.64 5.024 342.784 0.128L352 0h384a288 288 0 0 1 288 288 64 64 0 0 1-127.84 4.8L896 288a160 160 0 0 0-153.056-159.84L736 128H352a224 224 0 0 0-223.872 216.32L128 352v224.896C128 693.376 204.384 800 288 800c68.704 0 131.36 21.504 189.792 57.536 7.584 4.672 14.656 9.28 21.568 14.08l11.424 8.128 0.64-0.48c6.912-5.056 14.016-9.92 21.44-14.752l11.36-7.136C602.88 821.536 666.784 800 736 800c62.336 0 122.08-60.192 147.36-140.8l-74.4 61.952a64 64 0 0 1-35.36 14.592L768 736h-256a64 64 0 0 1-4.8-127.84L512 608h232.8l174.24-145.152 2.56-2.048 4.736-3.232 3.52-2.048 2.336-1.184a63.68 63.68 0 0 1 8.096-3.232l3.904-1.152 5.344-1.088 4.384-0.576zM672 320a80 80 0 1 1 0 160 80 80 0 0 1 0-160z m-320 0a80 80 0 1 1 0 160 80 80 0 0 1 0-160z" /></svg>