<?xml version="1.0" standalone="no"?><!DOCTYPE svg PUBLIC "-//W3C//DTD SVG 1.1//EN" "http://www.w3.org/Graphics/SVG/1.1/DTD/svg11.dtd"><svg class="icon" width="128px" height="128.00px" viewBox="0 0 1024 1024" version="1.1" xmlns="http://www.w3.org/2000/svg"><path fill="#d8d8d8" d="M524.525715 0.160615l8.766625 0.159975c102.639898 3.519448 183.65119 64.149936 204.543912 158.183185 5.215182 23.452321 6.814931 49.752195 5.119197 79.347552l-0.31995 5.535132-0.44793 5.599121-1.279799 12.861983 8.766625-1.119825 5.087202-0.511919 10.078419-0.671895 9.406524-0.223965c93.425344 0 143.433499 15.517566 192.993724 64.789836 62.038268 61.686323 70.292973 148.264741 38.234002 301.00878-8.446675 40.217691-22.204517 87.826222-41.401505 143.401503l-5.375157 15.357591-10.558343 29.179423-11.454203 30.459221-12.542033 32.218946c-33.72271 80.243412-121.900877 144.297363-204.767877 148.104766l-7.998745 0.159975H186.690713c-100.688205 0-182.787325-82.291091-186.530738-185.250939L0 831.294231v-350.34504c0-103.951693 79.763487-188.642407 179.523837-192.545794l7.166876-0.12798h75.188205c18.461104 0.031995 58.6468-44.377038 66.965495-86.130488 24.892095-124.68444 95.984942-202.208279 195.681302-202.016309z m-0.479925 132.235255l-4.543287 0.159975c-35.930363 2.559598-63.989962 36.474278-78.035758 98.256586l-3.423463 15.837516c-20.508783 85.746549-94.577163 156.039521-158.631115 160.102884l-5.983061 0.159975H201.824339c-39.097867 0-71.060852 31.291091-73.684441 70.836887L127.979923 482.964875v333.803634c0 40.249686 30.363237 73.204516 68.789209 75.8601l5.055207 0.19197h500.881424c37.754077 0.06399 86.162483-33.7867 104.559597-70.548933l2.303639-5.023212 14.493726-37.370137 2.719574-7.198871 10.302383-27.963613 9.37453-26.555834c16.31744-47.384567 27.963613-87.666247 34.874529-120.621078 21.052697-100.048305 19.612923-160.262859-6.910916-186.594728-25.276035-25.084065-53.335633-31.611041-111.790463-31.611041-23.164366 0-54.583437 8.318695-93.489334 25.62798-32.346926 14.397741-66.709535-13.885822-61.398368-48.760351l0.543915-2.847553 5.407151-20.348808 5.471142-22.940401c4.927227-22.716436 8.2867-44.856963 9.43852-65.013801 1.023839-17.981179 0.19197-33.370765-2.431619-45.240903-9.182559-41.17754-47.992471-67.285445-102.127979-67.413425zM313.742782 495.026983c36.474278 0 66.069635 30.555207 66.069635 68.245294v136.522583c0 37.690087-29.563362 68.245294-66.069635 68.245294-36.474278 0-66.03764-30.555207-66.037641-68.245294V563.272277c0-37.690087 29.563362-68.245294 66.037641-68.245294z"  /></svg>