<?xml version="1.0" standalone="no"?><!DOCTYPE svg PUBLIC "-//W3C//DTD SVG 1.1//EN" "http://www.w3.org/Graphics/SVG/1.1/DTD/svg11.dtd"><svg t="1637735299237" class="icon" viewBox="0 0 1024 1024" version="1.1" xmlns="http://www.w3.org/2000/svg" p-id="3675" xmlns:xlink="http://www.w3.org/1999/xlink" width="128" height="128"><defs><style type="text/css"></style></defs><path d="M222.866286 333.214476a48.761905 48.761905 0 0 1 2.852571 65.828572l-2.852571 3.120762-22.406096 22.406095c-104.740571 104.740571-104.740571 274.578286 0 379.318857 102.887619 102.887619 268.604952 104.667429 373.686858 5.412571l5.583238-5.412571 22.430476-22.430476a48.761905 48.761905 0 0 1 71.801905 65.828571l-2.852572 3.120762-22.430476 22.430476c-142.799238 142.799238-374.369524 142.799238-517.168762 0C-9.240381 732.16-11.288381 505.246476 125.318095 361.959619l6.217143-6.339048 22.406095-22.430476a48.761905 48.761905 0 0 1 68.949334 0zM872.838095 131.486476c140.726857 140.726857 142.774857 367.616 6.192762 510.854095l-6.192762 6.363429-22.430476 22.430476a48.761905 48.761905 0 0 1-71.801905-65.877333l2.852572-3.096381 22.430476-22.430476c104.71619-104.71619 104.71619-274.529524 0-379.294476C700.952381 97.54819 535.210667 95.768381 430.128762 195.047619l-5.558857 5.412571-22.430476 22.430477a48.761905 48.761905 0 0 1-71.826286-65.852953l2.852571-3.096381 22.430476-22.430476c142.799238-142.799238 374.393905-142.799238 517.193143 0zM626.297905 378.026667a48.761905 48.761905 0 0 1 2.852571 65.852952l-2.852571 3.096381-179.297524 179.297524a48.761905 48.761905 0 0 1-71.826286-65.828572l2.852572-3.120762 179.297523-179.297523a48.761905 48.761905 0 0 1 68.973715 0z" p-id="3676"></path></svg>