<?xml version="1.0" standalone="no"?><!DOCTYPE svg PUBLIC "-//W3C//DTD SVG 1.1//EN" "http://www.w3.org/Graphics/SVG/1.1/DTD/svg11.dtd"><svg class="icon" width="128px" height="128.00px" viewBox="0 0 1024 1024" version="1.1" xmlns="http://www.w3.org/2000/svg"><path fill="#d8d8d8" d="M299.373714 242.322286c6.802286 16.091429 15.213714 30.427429 27.062857 42.934857 11.922286 12.580571 25.453714 23.405714 42.422858 28.745143 15.213714 7.168 32.182857 10.678857 49.152 10.678857 16.969143 0 33.865143-3.510857 49.225142-10.678857 15.213714-7.241143 30.427429-16.091429 42.349715-28.745143 11.849143-12.507429 22.016-26.843429 27.062857-42.934857 5.12-16.091429 8.484571-34.084571 8.484571-51.931429a140.288 140.288 0 0 0-37.302857-94.939428c-11.849143-12.653714-25.380571-23.405714-42.422857-28.745143a115.492571 115.492571 0 0 0-49.078857-10.752c-16.969143 0-33.865143 3.510857-49.225143 10.752-15.213714 7.168-30.427429 16.091429-42.349714 28.672a113.956571 113.956571 0 0 0-27.062857 42.934857c-5.046857 18.066286-8.484571 35.84-8.484572 52.004571 0 17.92 3.364571 35.84 10.166857 52.004572zM109.714286 451.876571c0 14.336 3.364571 30.427429 8.411428 43.008 5.12 14.262857 13.531429 26.843429 23.698286 37.595429 10.166857 10.752 22.016 19.602286 35.547429 25.014857 13.531429 5.339429 27.062857 8.923429 40.594285 8.923429 13.531429 0 28.745143-3.584 40.667429-8.923429a100.937143 100.937143 0 0 0 35.547428-25.014857 107.52 107.52 0 0 0 23.698286-37.595429c5.12-14.336 8.411429-28.672 8.411429-43.008 0-14.262857-3.364571-30.354286-8.411429-42.934857a107.52 107.52 0 0 0-23.698286-37.595428 100.937143 100.937143 0 0 0-35.547428-25.014857 110.884571 110.884571 0 0 0-40.667429-8.923429c-13.458286 0-28.745143 3.510857-40.594285 8.923429a100.937143 100.937143 0 0 0-35.547429 25.014857 107.52 107.52 0 0 0-23.698286 37.595428c-6.656 12.434286-8.411429 26.843429-8.411428 42.934857z m96.548571 290.157715c0 12.580571 1.682286 26.843429 6.729143 39.424 5.12 12.580571 11.922286 23.332571 20.333714 32.182857 8.484571 8.923429 20.333714 17.993143 32.182857 21.504 11.922286 5.412571 23.698286 7.241143 37.302858 7.241143 13.531429 0 25.453714-1.828571 37.302857-7.241143 11.922286-5.339429 22.016-12.580571 32.182857-21.430857 8.484571-8.923429 16.969143-21.504 20.333714-32.256 5.12-12.580571 6.802286-25.014857 6.802286-39.424a107.52 107.52 0 0 0-6.802286-39.424 101.961143 101.961143 0 0 0-20.333714-32.182857 79.433143 79.433143 0 0 0-32.182857-21.504 86.820571 86.820571 0 0 0-37.302857-7.241143c-13.458286 0-25.380571 1.828571-37.302858 7.241143a128.585143 128.585143 0 0 0-32.182857 21.430857 92.672 92.672 0 0 0-20.333714 32.256 162.230857 162.230857 0 0 0-6.802286 39.424z m260.827429 103.862857c0 23.332571 8.411429 46.518857 23.698285 62.756571 15.213714 16.091429 37.302857 25.014857 59.245715 25.014857 22.089143 0 44.032-8.923429 59.392-25.014857 15.213714-16.091429 23.698286-39.497143 23.698285-62.756571 0-23.332571-8.484571-46.592-23.698285-62.756572a82.285714 82.285714 0 0 0-59.318857-25.014857c-22.089143 0-44.105143 8.923429-59.318858 25.014857a101.814857 101.814857 0 0 0-23.698285 62.756572z m220.233143-103.862857c0 19.675429 8.411429 39.424 20.333714 53.686857 13.531429 14.336 32.182857 21.504 50.761143 21.504 18.651429 0 37.302857-8.923429 50.834285-21.504 13.531429-14.262857 20.333714-34.011429 20.333715-53.686857 0-19.675429-8.484571-39.424-20.333715-53.686857a69.851429 69.851429 0 0 0-50.834285-21.504c-18.578286 0-37.302857 8.923429-50.761143 21.504a86.820571 86.820571 0 0 0-20.333714 53.686857z m101.668571-193.462857a67.291429 67.291429 0 0 0 18.505143 46.592c11.922286 12.580571 27.136 19.748571 44.105143 19.748571 16.969143 0 32.182857-7.314286 44.105143-19.748571A66.852571 66.852571 0 0 0 914.285714 548.571429a66.852571 66.852571 0 0 0-18.578285-46.518858 59.904 59.904 0 0 0-44.105143-19.675428 60.269714 60.269714 0 0 0-44.105143 19.748571 70.290286 70.290286 0 0 0-18.578286 46.445715z m-6.875429-180.882286c0.292571 26.624 20.626286 47.981714 45.714286 48.274286 25.161143-0.292571 45.348571-21.796571 45.714286-48.274286-0.292571-26.624-20.626286-47.981714-45.714286-48.347429-25.088 0.365714-45.348571 21.796571-45.714286 48.274286z m-91.428571-128.877714c0 8.850286 3.364571 19.602286 10.166857 25.014857a32.475429 32.475429 0 0 0 23.698286 10.752c8.411429 0 18.578286-3.584 23.625143-10.752a36.278857 36.278857 0 0 0 10.166857-25.014857c0-8.923429-3.364571-19.748571-10.166857-25.088a32.475429 32.475429 0 0 0-23.625143-10.678858c-8.484571 0-18.651429 3.510857-23.698286 10.678858-6.802286 5.266286-10.166857 14.336-10.166857 25.088z" /></svg>