<?xml version="1.0" standalone="no"?><!DOCTYPE svg PUBLIC "-//W3C//DTD SVG 1.1//EN" "http://www.w3.org/Graphics/SVG/1.1/DTD/svg11.dtd"><svg t="1631759534470" class="icon" viewBox="0 0 1024 1024" version="1.1" xmlns="http://www.w3.org/2000/svg" p-id="2552" xmlns:xlink="http://www.w3.org/1999/xlink" width="16" height="16"><defs><style type="text/css"></style></defs><path d="M512 0c129.92 0 253.792 54.272 339.872 149.184 153.76 169.504 141.6 429.696-24.192 596.48l-8 7.84-241.216 231.424a96 96 0 0 1-128.384 4.096l-4.544-4.096-241.184-231.424C30.912 587.2 15.904 321.376 172.128 149.216 258.208 54.272 382.048 0 512 0z m0 128c-94.016 0-183.36 39.168-245.088 107.2-106.72 117.664-98.56 299.712 19.136 419.136l6.912 6.816L512 871.296l219.04-210.144c119.52-114.688 133.856-291.872 37.952-411.968l-5.888-7.136-6.048-6.848C695.392 167.168 606.016 128 512 128z m0 288a96 96 0 1 1 0 192 96 96 0 0 1 0-192z" p-id="2553"></path></svg>