<?xml version="1.0" standalone="no"?><!DOCTYPE svg PUBLIC "-//W3C//DTD SVG 1.1//EN" "http://www.w3.org/Graphics/SVG/1.1/DTD/svg11.dtd"><svg class="icon" width="128px" height="128.00px" viewBox="0 0 1024 1024" version="1.1" xmlns="http://www.w3.org/2000/svg"><path fill="#d8d8d8" d="M512 0c282.7264 0 512 229.2224 512 512s-229.2736 512-512 512S0 794.7776 0 512 229.2736 0 512 0z m250.0608 261.9392a64 64 0 0 0-79.6672-8.704l-5.5296 4.0448-5.2224 4.608L512 421.6832l-159.5904-159.744-5.2224-4.608a63.8464 63.8464 0 0 0-62.6176-9.8816l-6.8608 3.072-5.9392 3.5328-5.6832 4.1984-4.096 3.7376-4.6592 5.12c-15.872 19.7632-18.432 46.848-6.9632 69.2736l3.4816 5.9392 4.1472 5.7344 3.9936 4.3008 159.6416 159.744-159.6416 159.5904-4.6592 5.2224a64 64 0 0 0-7.6288 68.096l3.584 6.4 4.0448 5.5296 4.608 5.1712 5.2224 4.6592c21.3504 17.2032 51.2 18.6368 73.984 4.3008l6.0416-4.3008 5.2224-4.608 409.7024-409.7536 4.6592-5.2224c20.224-25.088 18.6368-61.952-4.608-85.1968zM660.48 570.5728a63.9488 63.9488 0 0 0-93.9008 84.3776l3.9936 5.5296 4.6592 5.1712 96.4096 96.4096 5.2224 4.6592a63.9488 63.9488 0 0 0 93.8496-84.3264l-3.9936-5.5296-4.608-5.2224L665.6 575.232l-5.1712-4.608z" /></svg>