<?xml version="1.0" encoding="UTF-8"?>
<svg width="76px" height="55px" viewBox="0 0 76 55" version="1.1" xmlns="http://www.w3.org/2000/svg" xmlns:xlink="http://www.w3.org/1999/xlink">
    <title>编组 2</title>
    <g id="1.4" stroke="none" stroke-width="1" fill="none" fill-rule="evenodd">
        <g id="添加打卡日记--超过字数" transform="translate(-98.000000, -771.000000)" fill="#FFFFFF">
            <g id="编组" transform="translate(30.000000, 693.000000)">
                <g id="编组-2" transform="translate(68.000000, 78.000000)">
                    <path d="M75.1554175,22.3665631 C75.7108393,23.4774066 76,24.7023111 76,25.9442719 L76,40.0557281 C76,44.4740061 72.418278,48.0557281 68,48.0557281 C66.7580392,48.0557281 65.5331347,47.7665674 64.4222912,47.2111456 L62,45.9995195 L62,19.9995195 L64.4222912,18.7888544 C68.3741192,16.8129404 73.1795035,18.4147352 75.1554175,22.3665631 Z M56,22.9995195 L56,42.9995195 L36,33 L56,22.9995195 Z" id="形状结合"></path>
                    <path d="M44,11 C50.627417,11 56,16.372583 56,23 L56,43 C56,49.627417 50.627417,55 44,55 L12,55 C5.372583,55 8.11624501e-16,49.627417 0,43 L0,23 C-8.11624501e-16,16.372583 5.372583,11 12,11 L44,11 Z M24,19 L16,19 C14.3431458,19 13,20.3431458 13,22 C13,23.6568542 14.3431458,25 16,25 L16,25 L24,25 C25.6568542,25 27,23.6568542 27,22 C27,20.3431458 25.6568542,19 24,19 L24,19 Z" id="形状结合"></path>
                    <path d="M36.9700779,11 L28,19.9705627 L19.0290779,11 L27.5150779,11 L28.000652,11.4859334 L28.4850779,11 L36.9700779,11 Z M17.2651535,0.757637051 L17.3933983,0.878679656 L21.5150779,5 L13.0370779,5 L13.0157924,4.97733075 C11.9810592,3.79895255 12.0260476,2.00338962 13.1507576,0.878679656 C14.2804886,-0.25105133 16.0870757,-0.291398866 17.2651535,0.757637051 Z M42.7209976,0.757637051 L42.8492424,0.878679656 C43.9789734,2.00841064 44.0193209,3.81499773 42.970285,4.99307558 L42.9630779,5 L34.4840779,5 L38.6066017,0.878679656 C39.7363327,-0.25105133 41.5429198,-0.291398866 42.7209976,0.757637051 Z" id="形状结合" fill-rule="nonzero"></path>
                </g>
            </g>
        </g>
    </g>
</svg>