<?xml version="1.0" standalone="no"?><!DOCTYPE svg PUBLIC "-//W3C//DTD SVG 1.1//EN" "http://www.w3.org/Graphics/SVG/1.1/DTD/svg11.dtd"><svg class="icon" width="128px" height="128.00px" viewBox="0 0 1024 1024" version="1.1" xmlns="http://www.w3.org/2000/svg"><path fill="#d8d8d8" d="M256 544a224 224 0 1 1 0 448 224 224 0 0 1 0-448z m512 0a224 224 0 1 1 0 448 224 224 0 0 1 0-448zM256 663.456a104.544 104.544 0 1 0 0 209.088 104.544 104.544 0 0 0 0-209.088z m512 0a104.544 104.544 0 1 0 0 209.088 104.544 104.544 0 0 0 0-209.088zM727.808 24.96a64 64 0 0 1 86.432-3.712l4.096 3.712 180.992 181.024a64 64 0 0 1 3.744 86.432l-3.744 4.096-180.992 180.992a64 64 0 0 1-86.464 3.744l-4.064-3.744-181.024-180.992a64 64 0 0 1-3.744-86.464l3.744-4.064L727.808 24.96zM256 32a224 224 0 1 1 0 448A224 224 0 0 1 256 32z m0 119.456a104.544 104.544 0 1 0 0 209.088 104.544 104.544 0 0 0 0-209.088z m517.056 9.28L682.56 251.2l90.496 90.528 90.528-90.528-90.528-90.496z" /></svg>