<?xml version="1.0" standalone="no"?><!DOCTYPE svg PUBLIC "-//W3C//DTD SVG 1.1//EN" "http://www.w3.org/Graphics/SVG/1.1/DTD/svg11.dtd"><svg t="1637735278396" class="icon" viewBox="0 0 1024 1024" version="1.1" xmlns="http://www.w3.org/2000/svg" p-id="3248" xmlns:xlink="http://www.w3.org/1999/xlink" width="128" height="128"><defs><style type="text/css"></style></defs><path d="M512.024381 24.064l5.534476 0.633905c28.525714 3.267048 55.125333 15.433143 78.214095 35.157333 7.631238 6.485333 14.140952 12.897524 19.285334 18.773333l4.047238 4.85181 4.729905-1.926095 5.241904-1.877334 5.851429-2.023619a149.308952 149.308952 0 0 1 45.519238-6.899809c81.968762 0 152.697905 55.100952 152.697905 129.755428 0 33.401905-14.750476 63.951238-39.448381 86.844953l-4.754286 4.193524-4.096 3.315809 1.340952 0.975238c15.798857 11.995429 31.207619 24.990476 46.104381 38.912l11.093334 10.605714 10.873905 10.898286c79.408762 81.310476 120.832 170.715429 120.563809 264.362667 0 65.243429-12.263619 125.074286-36.693333 177.542095a349.622857 349.622857 0 0 1-100.230096 126.366476c-41.252571 32.719238-90.526476 57.636571-146.310095 74.191238-49.859048 14.823619-104.009143 22.869333-161.084952 24.015238l-14.336 0.146286h-8.777143c-62.342095 0-121.417143-8.118857-175.396571-24.137143-55.808-16.579048-105.081905-41.496381-146.334477-74.215619a349.037714 349.037714 0 0 1-100.205714-126.415238C61.001143 745.74019 48.761905 685.909333 48.761905 620.617143c0-93.817905 41.398857-183.076571 120.758857-264.460191a633.61219 633.61219 0 0 1 44.909714-41.837714l11.580953-9.508571 13.019428-10.142477-4.022857-3.267047c-24.551619-20.772571-40.399238-48.493714-43.641905-79.238095l-0.487619-6.217143-0.121905-5.558857c0-74.678857 70.704762-129.755429 152.722286-129.755429 15.60381 0 30.817524 2.31619 45.372953 6.89981l7.241142 2.486857 4.803048 1.779809 4.120381 1.682286 0.585143-0.731429c3.584-4.388571 7.704381-8.899048 12.385524-13.507047l4.87619-4.632381 5.290667-4.681143C449.462857 41.764571 473.551238 30.037333 499.395048 25.697524l7.070476-0.999619 5.558857-0.633905z m182.125714 324.096l-6.656 1.26781a851.236571 851.236571 0 0 1-57.563428 8.411428l3.681523 15.067429c8.118857 34.54781 13.409524 69.046857 14.457905 102.034285 0.121905 3.900952 0.170667 7.728762 0.170667 11.532191a48.761905 48.761905 0 1 1-97.52381 0l-0.121904-8.43581c-0.828952-25.721905-5.168762-54.076952-11.922286-82.797714-1.999238-8.533333-4.120381-16.676571-6.265905-24.210286l-2.048-6.777904c-9.923048 0.219429-20.089905 0.341333-30.47619 0.341333-66.194286 0-119.125333-4.87619-160.182857-13.165714a442.294857 442.294857 0 0 1-10.971429-2.340572c-3.193905 3.267048-6.729143 6.241524-10.508191 8.899048l-5.753904 3.779047-8.777143 6.582858-0.609524 0.26819-6.534095 4.827429c-13.04381 9.898667-25.916952 20.772571-38.521905 32.52419l-9.386667 8.972191-9.289142 9.313523C176.737524 488.472381 146.285714 554.105905 146.285714 620.617143c0 51.541333 9.362286 97.328762 27.526096 136.216381A251.465143 251.465143 0 0 0 246.247619 848.14019c31.183238 24.722286 69.266286 43.983238 113.493333 57.124572 40.984381 12.190476 86.186667 18.944 134.412191 19.992381l13.214476 0.121905h8.777143c53.199238 0 102.912-6.826667 147.651048-20.114286 44.202667-13.141333 82.285714-32.402286 113.444571-57.100191a252.001524 252.001524 0 0 0 72.484571-91.257904c18.16381-38.985143 27.550476-84.772571 27.550477-136.387048 0.170667-66.364952-30.232381-132.022857-92.891429-196.169143a507.318857 507.318857 0 0 0-57.051429-50.712381l-15.384381-11.337143-7.265523-4.87619a78.336 78.336 0 0 1-10.581334-9.240381zM512 122.660571l-1.80419 0.487619c-3.705905 1.194667-7.41181 2.925714-11.142096 5.290667l-3.730285 2.584381-3.754667 2.998857-2.511238 2.194286-2.194286 2.023619-3.413333 3.413333-2.194286 2.511238-3.218286 4.583619c-1.219048 1.633524-2.486857 3.242667-3.900952 4.803048l-2.243048 2.340572-0.390095 0.487619c-22.308571 23.527619-58.319238 33.962667-91.282286 22.893714l-4.681142-1.731048-4.632381-2.023619-1.901715-0.975238-3.974095-2.194286 0.219429 0.170667-0.390096-0.073143-2.925714-1.048381-4.388571-1.414095a51.078095 51.078095 0 0 0-6.070857-1.26781l-3.145143-0.365714-4.876191-0.195047c-32.719238 0-55.198476 17.505524-55.198476 32.231619 0 6.729143 5.168762 14.726095 16.505905 21.382095l7.996952 4.36419c10.630095 6.241524 19.504762 14.823619 26.038857 24.868572 5.534476 1.609143 12.239238 3.242667 20.138667 4.827428 34.474667 6.948571 80.944762 11.215238 140.921905 11.215238 62.244571 0 115.029333-4.33981 158.427428-11.53219l14.06781-2.486857 6.436571-1.26781 6.924191-1.511619c6.339048-9.411048 14.701714-17.481143 24.697904-23.552l8.704-4.803047c11.288381-6.631619 16.481524-14.628571 16.481524-21.382096 0-14.726095-22.479238-32.231619-55.174095-32.231619-5.436952 0-10.361905 0.682667-15.872 2.364953l-6.241524 2.121143-2.389333 1.389714-3.535238 1.755428-5.071238 2.145524c-31.695238 12.483048-67.876571 3.82781-90.940953-17.700571l-3.34019-3.31581-4.632381-5.241904-3.096381-4.022858-2.364952-3.291428a73.825524 73.825524 0 0 0-10.410667-10.361905 58.051048 58.051048 0 0 0-15.018667-9.581714l-3.705905-1.365334-1.80419-0.512z" p-id="3249"></path></svg>