<?xml version="1.0" standalone="no"?><!DOCTYPE svg PUBLIC "-//W3C//DTD SVG 1.1//EN" "http://www.w3.org/Graphics/SVG/1.1/DTD/svg11.dtd"><svg class="icon" width="128px" height="128.00px" viewBox="0 0 1024 1024" version="1.1" xmlns="http://www.w3.org/2000/svg"><path fill="#d8d8d8" d="M415.84 91.2l0.16 4.928v832a64 64 0 0 1-127.84 4.8L288 928.096V248.96l-147.104 144.768a64 64 0 0 1-86.464 3.072l-4.032-3.776a64 64 0 0 1-3.072-86.464l3.776-4.032 256-252c39.264-38.656 104.896-12.8 108.736 40.64zM672 32a64 64 0 0 1 63.84 59.2L736 96v679.168l147.104-144.768a64 64 0 0 1 86.464-3.072l4.032 3.776a64 64 0 0 1 3.072 86.464l-3.776 4.032-256 252c-39.264 38.656-104.896 12.8-108.736-40.64L608 928V96a64 64 0 0 1 64-64z" /></svg>