<?xml version="1.0" standalone="no"?><!DOCTYPE svg PUBLIC "-//W3C//DTD SVG 1.1//EN" "http://www.w3.org/Graphics/SVG/1.1/DTD/svg11.dtd"><svg class="icon" width="128px" height="128.00px" viewBox="0 0 1024 1024" version="1.1" xmlns="http://www.w3.org/2000/svg"><path fill="#d8d8d8" d="M703.99142 31.99961c173.757882 0 315.132159 138.494312 319.868102 311.100208l0.127998 8.959891v250.620946c0 153.822125-109.278668 285.436521-259.516837 314.300169l-21.055743 3.711955-10.303875 2.015975-8.2239 1.919977-6.847916 1.951976-3.839953 1.279985-4.191949 1.503981-9.247888 3.647956-5.087937 2.143974-11.039866 4.89594-12.255851 5.75993-13.439836 6.59192-14.559822 7.423909-23.999708 12.671846-17.439787 9.503884-18.495775 10.303874-19.615761 11.103865-20.703747 11.903855a63.99922 63.99922 0 0 1-59.295278 2.623968l-5.087938-2.655968-20.47975-11.871855-28.831649-16.319801-26.399678-14.495824-16.223802-8.639894-22.271729-11.423861-13.439836-6.59192-12.255851-5.759929-11.135864-4.92794-5.119938-2.143974-9.375885-3.679955-8.159901-2.815966-7.039914-2.015976-3.871953-0.959988-4.447946-0.959988-10.399873-2.079975-21.055743-3.711955a320.060099 320.060099 0 0 1-259.100843-305.244279L0 602.648655v-250.556946c0-173.789882 138.462312-315.196159 311.036209-319.9961L319.9961 31.99961h383.99532z m0 127.99844H319.9961c-103.614737 0-188.093708 79.679029-191.869662 179.389814L127.99844 346.395778V620.792434c0 91.230888 68.031171 169.05394 160.766041 183.901759l8.319898 1.375983 7.839905 1.407983 14.399824 2.815966 12.575847 2.879964 5.663931 1.503982c8.959891 2.49597 18.975769 5.887928 30.143633 10.239875l8.607895 3.423959 15.263814 6.463921 8.095901 3.615956 8.383898 3.839953 17.727784 8.479897 9.311886 4.575944 9.631883 4.831941 20.255753 10.431873 21.503738 11.423861 25.535689 13.95183 19.199766-10.463873 27.583664-14.687821 25.471689-13.055841 23.359715-11.45586 17.27979-8.031902 15.967805-7.039915 7.487909-3.135961 7.199912-2.879965 13.439836-4.991939 6.271924-2.143974 5.983927-1.887977 5.119938-1.503982c5.439934-1.471982 11.45586-2.943964 18.175778-4.351947l6.911916-1.407983 15.263814-2.751966 8.319898-1.375983c90.302899-14.399825 157.214084-88.478922 160.766041-176.573848l0.159998-7.359911v-274.492654c0-100.606774-82.110999-182.589775-184.797748-186.26973L703.99142 159.99805zM365.243549 530.745532C394.587191 560.089174 442.362609 575.99298 511.99376 575.99298c69.663151 0 117.406569-15.903806 146.750212-45.247448a63.99922 63.99922 0 0 1 90.494897 90.494897C693.239551 677.239746 613.016529 703.99142 511.99376 703.99142s-181.245791-26.751674-237.245108-82.750991a63.99922 63.99922 0 0 1 90.494897-90.494897z" /></svg>