<?xml version="1.0" standalone="no"?><!DOCTYPE svg PUBLIC "-//W3C//DTD SVG 1.1//EN" "http://www.w3.org/Graphics/SVG/1.1/DTD/svg11.dtd"><svg t="1634714258249" class="icon" viewBox="0 0 1024 1024" version="1.1" xmlns="http://www.w3.org/2000/svg" p-id="2900" xmlns:xlink="http://www.w3.org/1999/xlink" width="128" height="128"><defs><style type="text/css"></style></defs><path d="M512 0c282.784 0 512 229.216 512 512s-229.216 512-512 512S0 794.784 0 512 229.216 0 512 0z m0 128C299.936 128 128 299.936 128 512s171.936 384 384 384 384-171.936 384-384S724.064 128 512 128z m192 383.84c0 14.656-19.296 35.84-47.872 58.272l-11.904 9.024-12.736 9.088c-6.56 4.512-13.376 9.056-20.384 13.504l-14.208 8.864a793.6 793.6 0 0 1-7.264 4.352l-14.688 8.512-14.816 8.192-7.392 3.936-14.752 7.552-7.296 3.584-14.336 6.72c-42.464 19.264-78.944 29.92-92.064 22.688-22.72-12.48-30.656-116.8-26.368-204.768l1.152-19.2 0.704-9.344 1.76-17.952c4.512-40.544 12.224-71.36 22.752-77.312 11.744-6.624 47.776 4.224 90.24 23.456l14.368 6.72 7.328 3.584 14.784 7.52 14.944 7.936 14.88 8.32c2.464 1.376 4.928 2.816 7.36 4.256l14.56 8.704 14.144 8.864 13.6 8.992 6.528 4.48 12.48 9.024C681.664 473.28 704 496.224 704 511.84z" p-id="2901"></path></svg>