<?xml version="1.0" standalone="no"?><!DOCTYPE svg PUBLIC "-//W3C//DTD SVG 1.1//EN" "http://www.w3.org/Graphics/SVG/1.1/DTD/svg11.dtd"><svg t="1637735281712" class="icon" viewBox="0 0 1024 1024" version="1.1" xmlns="http://www.w3.org/2000/svg" p-id="3390" xmlns:xlink="http://www.w3.org/1999/xlink" width="128" height="128"><defs><style type="text/css"></style></defs><path d="M682.666667 48.761905c159.085714 0 288.52419 127.024762 292.473904 285.135238L975.238095 341.333333v341.333334c0 159.085714-127.000381 288.52419-285.135238 292.473904L682.666667 975.238095H341.333333C182.247619 975.238095 52.809143 848.213333 48.859429 690.102857L48.761905 682.666667V341.333333C48.761905 182.247619 175.762286 52.809143 333.897143 48.859429L341.333333 48.761905h341.333334zM268.190476 658.285714c-43.398095 0-84.992 11.459048-121.709714 32.792381a195.047619 195.047619 0 0 0 188.708571 186.538667L341.333333 877.714286h15.506286c6.485333-62.73219 22.918095-122.538667 47.616-177.785905A242.102857 242.102857 0 0 0 268.190476 658.285714zM877.714286 454.997333l-9.313524 1.243429c-212.943238 30.72-381.318095 199.070476-412.111238 412.038095l-1.26781 9.435429H682.666667a195.047619 195.047619 0 0 0 194.681904-182.954667l0.24381-6.022095L877.714286 682.666667l-0.024381-227.669334zM682.666667 146.285714H341.333333a195.047619 195.047619 0 0 0-194.950095 188.952381L146.285714 341.333333v242.029715A338.67581 338.67581 0 0 1 268.190476 560.761905c66.145524 0 129.438476 18.919619 183.588572 53.51619 94.208-141.165714 248.246857-239.055238 425.935238-257.438476V341.333333a195.047619 195.047619 0 0 0-188.952381-194.950095L682.666667 146.285714z" p-id="3391"></path><path d="M377.904762 316.952381a60.952381 60.952381 0 1 1-121.904762 0 60.952381 60.952381 0 0 1 121.904762 0" p-id="3392"></path></svg>