<?xml version="1.0" standalone="no"?><!DOCTYPE svg PUBLIC "-//W3C//DTD SVG 1.1//EN" "http://www.w3.org/Graphics/SVG/1.1/DTD/svg11.dtd"><svg class="icon" width="128px" height="128.00px" viewBox="0 0 1024 1024" version="1.1" xmlns="http://www.w3.org/2000/svg"><path fill="#d8d8d8" d="M684.288 409.312c4.832-4.8 9.472-9.376 13.92-13.632l12.8-12.096c19.968-18.24 51.296-30.912 68.064-31.488L784 352H896c2.688 0 5.344-0.16 7.936-0.48a64 64 0 0 0 60.448-100.32l-3.2-4.16-160-192-3.52-3.904a64 64 0 0 0-98.016 81.664l3.2 4.16 72.576 87.168c-63.36 1.824-90.848 10.656-139.84 54.624l-12.768 11.712-6.752 6.464-14.464 14.112-7.744 7.68a64 64 0 1 0 90.432 90.592z m129.344 563.552l3.52-3.904 160-192 2.176-2.72 2.816-4.128 1.504-2.464a63.648 63.648 0 0 0 7.04-18.784l0.672-3.776 0.384-3.2L992 736l-0.064-2.72-0.352-4.544-0.544-3.84-1.056-4.8-1.28-4.352-1.92-5.12-2.048-4.32-2.56-4.48-2.688-3.872-3.744-4.576-3.776-3.872-3.008-2.656-2.24-1.824-3.84-2.72-2.368-1.44-4.928-2.624-6.144-2.56-5.472-1.664-6.144-1.28-5.056-0.576L928 672h-116.48c-28.48 0-60.064-5.184-88.192-26.816a319.456 319.456 0 0 1-15.744-12.992l-11.392-10.336c-3.936-3.712-8.064-7.68-12.384-11.936l-13.6-13.728-26.656-28.128-60.384-64.48a604.384 604.384 0 0 1-45.664-54.72l-9.952-13.504-10.656-14.944-31.968-46.176-12.992-18.368-12.864-17.504C365.248 213.472 278.752 160 96 160a64 64 0 1 0 0 128c131.232 0 185.216 30.016 250.72 114.048l10.72 14.112 11.04 15.104 5.632 7.904 38.176 55.008 11.68 16.384 11.072 15.072c18.24 24.384 36.096 45.856 55.36 66.08l80.032 85.44c29.216 30.464 51.84 51.776 74.88 69.504 43.744 33.6 96.384 48.8 146.688 52.608l-73.152 87.776a64 64 0 0 0 94.784 85.824zM96 864c151.52 0 232.384-41.92 334.08-147.616a64 64 0 0 0-92.16-88.768C258.368 710.208 208.64 736 96 736a64 64 0 0 0 0 128z" /></svg>