<?xml version="1.0" encoding="UTF-8"?>
<svg width="14px" height="17px" viewBox="0 0 14 17" version="1.1" xmlns="http://www.w3.org/2000/svg" xmlns:xlink="http://www.w3.org/1999/xlink">
    <title>hongbao 描边</title>
    <g id="页面-1" stroke="none" stroke-width="1" fill="none" fill-rule="evenodd">
        <g id="天天红包雨.-中奖记录" transform="translate(-39.000000, -860.000000)" fill="#999999" fill-rule="nonzero">
            <g id="hongbao-描边" transform="translate(39.000000, 860.000000)">
                <path d="M11.2499919,8.73967565e-13 C12.4874907,8.73967565e-13 13.5,1.01720403 13.5,2.2604606 L13.5,2.2604606 L13.5,3.0516121 C13.5,3.3906909 9.89999033,4.86 6.74999194,4.86 C3.59999355,4.86 0,3.3906909 0,3.05162828 L0,3.05162828 L0,2.2604606 C0,1.01720403 1.01249315,8.73967565e-13 2.24999194,8.73967565e-13 L2.24999194,8.73967565e-13 Z M10.2485947,0.833550425 L2.78649171,0.833424541 C1.77815936,0.833424541 1,0.84355602 1,1.8745749 L1,2.48379754 C0.758755612,3.18727043 3.91078616,3.98264461 6.47745152,3.98264461 C9.04411687,3.98264461 12.689665,3.07859119 12.689665,2.48379754 L12.689665,1.8745749 C12.689665,0.88651514 11.2555721,0.836041205 10.2485947,0.833550425 Z" id="形状结合"></path>
                <path d="M13.5,4.32 L13.5,13.9514271 C13.5,15.1881454 12.4875056,16.2 11.2500054,16.2 L11.2500054,16.2 L2.24999463,16.2 C1.01249436,16.2 0,15.1881454 0,13.9514271 L0,13.9514271 L0,4.32 C0.525003044,4.61980758 1.16250904,4.84468741 1.83749454,5.03204702 C2.81249329,5.3318868 4.76250689,5.8565259 6.75,5.8565259 C8.73749311,5.85654201 10.6874906,5.36934262 11.6625055,5.03206312 C12.4875056,4.76972747 13.0500043,4.54486373 13.5,4.32 L13.5,4.32 Z M12.5533368,5.70569848 C12.1393407,5.92087908 10.1882489,6.82670828 7.21824887,6.82670828 C4.24824887,6.82670828 1.49125167,6.15302526 1.00824887,5.86614347 L1,13.0927107 C1,14.2761733 1.93149481,15.2444552 3.06999506,15.2444552 L10.4750929,15.2444552 C11.6135931,15.2444552 12.5450879,14.2761733 12.5450879,13.0927107 L12.5533368,5.70569848 Z" id="形状结合"></path>
                <path d="M6.82,14.04 C7.06221453,14.04 7.3217301,13.9385915 7.3217301,13.7273239 L7.3217301,12.8146479 L8.60200692,12.8146479 C8.75771626,12.8146479 8.82692042,12.6287324 8.82692042,12.4597183 C8.82692042,12.2907042 8.75771626,12.1047887 8.60200692,12.1047887 L7.3217301,12.1047887 L7.3217301,11.496338 L8.60200692,11.496338 C8.75771626,11.496338 8.82692042,11.3104225 8.82692042,11.1329577 C8.82692042,10.9639437 8.75771626,10.7864789 8.60200692,10.7864789 L7.58124567,10.7864789 L9.1815917,8.6484507 C9.26809689,8.53014085 9.32,8.42028169 9.32,8.32732394 C9.32,8.14985915 9.19024221,8.04 8.90477509,8.04 L8.73176471,8.04 C8.55875433,8.04 8.40304498,8.13295775 8.29923875,8.27661972 L6.82,10.4315493 L5.33211073,8.27661972 C5.2283045,8.13295775 5.07259516,8.04 4.90823529,8.04 L4.73522491,8.04 C4.44110727,8.04 4.32,8.14985915 4.32,8.32732394 C4.32,8.42028169 4.3632526,8.53014085 4.4584083,8.6484507 L6.06740484,10.7864789 L5.03799308,10.7864789 C4.88228374,10.7864789 4.81307958,10.9639437 4.81307958,11.1329577 C4.81307958,11.3104225 4.88228374,11.496338 5.03799308,11.496338 L6.32692042,11.496338 L6.32692042,12.1047887 L5.03799308,12.1047887 C4.88228374,12.1047887 4.81307958,12.2907042 4.81307958,12.4597183 C4.81307958,12.6287324 4.88228374,12.8146479 5.03799308,12.8146479 L6.32692042,12.8146479 L6.32692042,13.7273239 C6.32692042,13.9385915 6.58643599,14.04 6.82,14.04 Z" id="¥"></path>
            </g>
        </g>
    </g>
</svg>