<?xml version="1.0" encoding="UTF-8"?>
<svg width="25px" height="30px" viewBox="0 0 25 30" version="1.1" xmlns="http://www.w3.org/2000/svg" xmlns:xlink="http://www.w3.org/1999/xlink">
    <title>hongbao</title>
    <g id="页面-1" stroke="none" stroke-width="1" fill="none" fill-rule="evenodd">
        <g id="天天红包雨-整页" transform="translate(-452.000000, -1646.000000)" fill="#999999" fill-rule="nonzero">
            <g id="1右" transform="translate(392.000000, 1155.000000)">
                <g id="hongbao" transform="translate(60.000000, 491.000000)">
                    <path d="M20.8333184,0 L4.16665175,0 C1.87498732,0 0,1.88371117 0,4.18603815 L0,5.65116349 C0,6.27905722 6.66665473,9 12.4999851,9 C18.3333154,9 25,6.27905722 25,5.65113351 L25,4.18603815 C25,1.88371117 23.1249828,0 20.8333184,0 L20.8333184,0 Z" id="路径"></path>
                    <path d="M25,8 L25,25.8359761 C25,28.1261952 23.1250104,30 20.8333433,30 L20.8333433,30 L4.16665672,30 C1.87498956,30 0,28.1261952 0,25.8359761 L0,25.8359761 L0,8 C0.972227859,8.55519921 2.15279452,8.97164336 3.40276767,9.31860559 C5.2083209,9.87386445 8.81945721,10.8454183 12.5,10.8454183 C16.1805428,10.8454482 19.7916493,9.94322707 21.5972323,9.31863541 C23.1250104,8.83282864 24.1666746,8.41641432 25,8 L25,8 Z M8.964,14.12 L8.644,14.12 C8.1,14.12 7.876,14.328 7.876,14.664 C7.876,14.84 7.956,15.048 8.132,15.272 L11.108,19.32 L9.204,19.32 C8.916,19.32 8.788,19.656 8.788,19.976 C8.788,20.312 8.916,20.664 9.204,20.664 L11.588,20.664 L11.588,21.816 L9.204,21.816 C8.916,21.816 8.788,22.168 8.788,22.488 C8.788,22.808 8.916,23.16 9.204,23.16 L11.588,23.16 L11.588,24.888 C11.588,25.288 12.068,25.48 12.5,25.48 C12.948,25.48 13.428,25.288 13.428,24.888 L13.428,23.16 L15.796,23.16 C16.084,23.16 16.212,22.808 16.212,22.488 C16.212,22.168 16.084,21.816 15.796,21.816 L13.428,21.816 L13.428,20.664 L15.796,20.664 C16.084,20.664 16.212,20.312 16.212,19.976 C16.212,19.656 16.084,19.32 15.796,19.32 L13.908,19.32 L16.868,15.272 C17.028,15.048 17.124,14.84 17.124,14.664 C17.124,14.328 16.884,14.12 16.356,14.12 L16.036,14.12 C15.716,14.12 15.428,14.296 15.236,14.568 L12.5,18.648 L9.748,14.568 C9.556,14.296 9.268,14.12 8.964,14.12 Z" id="形状"></path>
                </g>
            </g>
        </g>
    </g>
</svg>