<?xml version="1.0" encoding="UTF-8"?>
<svg width="128px" height="128px" viewBox="0 0 128 128" version="1.1" xmlns="http://www.w3.org/2000/svg" xmlns:xlink="http://www.w3.org/1999/xlink">
    <title>tixing备份 5</title>
    <defs>
        <filter id="filter-1">
            <feColorMatrix in="SourceGraphic" type="matrix" values="0 0 0 0 0.701961 0 0 0 0 0.443137 0 0 0 0 0.035294 0 0 0 1.000000 0"></feColorMatrix>
        </filter>
    </defs>
    <g id="页面-1" stroke="none" stroke-width="1" fill="none" fill-rule="evenodd">
        <g filter="url(#filter-1)" id="tixing备份-5">
            <g>
                <path d="M63.7861639,119.466667 C56.2386369,119.466667 48.9071946,117.991462 41.9924869,115.087152 C35.3247331,112.275043 29.3361023,108.26433 24.1963753,103.147213 C19.0566484,98.0300967 15.0282138,92.0678106 12.2036792,85.429389 C9.28653685,78.5604666 7.80481377,71.2612761 7.80481377,63.7315849 C7.80481377,56.2172604 9.28653685,48.9180699 12.2036792,42.0337808 C15.0282138,35.3953591 19.0566484,29.433073 24.1963753,24.3159563 C29.3361023,19.1988396 35.3247331,15.1881265 41.9924869,12.3760174 C48.89176,9.47170788 56.2232023,7.99650307 63.7861639,7.99650307 C71.3336908,7.99650307 78.6651331,9.47170788 85.5798408,12.3760174 C92.2475947,15.1881265 98.2362255,19.1988396 103.375952,24.3159563 C108.515679,29.433073 112.544114,35.3953591 115.368649,42.0337808 C118.285791,48.9027032 119.767514,56.2018936 119.767514,63.7315849 C119.767514,71.2459094 118.285791,78.5450999 115.368649,85.429389 C112.544114,92.0678106 108.515679,98.0300967 103.375952,103.147213 C98.2362255,108.26433 92.2475947,112.275043 85.5798408,115.087152 C78.6805677,117.991462 71.3491254,119.466667 63.7861639,119.466667 Z M63.7861639,17.2165331 C38.0257908,17.2165331 17.065583,38.0845345 17.065583,63.7315849 C17.065583,89.3786352 38.0257908,110.246637 63.7861639,110.246637 C89.546537,110.246637 110.506745,89.3786352 110.506745,63.7315849 C110.506745,38.0845345 89.546537,17.2165331 63.7861639,17.2165331 Z M4.625283,33.2440188 C3.822683,33.2440188 3.00464838,33.0288847 2.26378684,32.5986166 C0.0720714517,31.2924457 -0.653355473,28.4649698 0.643152222,26.282896 C6.87873685,15.8335286 15.7073369,6.99766647 26.1720061,0.74341274 C28.3637215,-0.562758187 31.2036907,0.144110785 32.5310677,2.32618457 C33.84301,4.50825835 33.1330177,7.33573424 30.9413023,8.65727189 C21.7885753,14.1278231 14.055833,21.8572816 8.60741377,31.0004781 C7.74307531,32.4449495 6.19961377,33.2440188 4.625283,33.2440188 L4.625283,33.2440188 Z M123.394649,33.1057183 C121.820318,33.1057183 120.276856,32.306649 119.412518,30.8621777 C113.948664,21.7343479 106.200487,14.020256 97.0323255,8.56507159 C94.8406101,7.25890066 94.1151832,4.43142477 95.4271255,2.24935099 C96.7390678,0.0672772013 99.579037,-0.654958488 101.770752,0.651212439 C112.250856,6.89009946 121.094891,15.6952282 127.34591,26.1292289 C128.657852,28.3113027 127.932426,31.1387786 125.74071,32.4449495 C125.015283,32.905951 124.197249,33.1057183 123.394649,33.1057183 L123.394649,33.1057183 Z" id="形状" fill="#515151" fill-rule="nonzero"></path>
                <path d="M17.4181752,128 C16.2318549,128 15.0455347,127.525244 14.1519429,126.559361 C12.3493524,124.643965 12.3493524,121.533493 14.1519429,119.618098 L29.0040558,103.836547 C30.8066463,101.921151 33.7339299,101.921151 35.5365204,103.836547 C37.3391109,105.751942 37.3391109,108.862414 35.5365204,110.77781 L20.6844075,126.559361 C19.7908156,127.525244 18.6044954,128 17.4181752,128 Z M106.315158,128 C105.128838,128 103.942518,127.525244 103.048926,126.559361 L88.1968129,110.77781 C86.3942225,108.862414 86.3942225,105.751942 88.1968129,103.836547 C89.9994034,101.921151 92.9266871,101.921151 94.7292775,103.836547 L109.58139,119.618098 C111.383981,121.533493 111.383981,124.643965 109.58139,126.559361 C108.672392,127.525244 107.486072,128 106.315158,128 L106.315158,128 Z" id="形状" fill="#515151" fill-rule="nonzero"></path>
                <path d="M85.0380628,89.6 C83.8809271,89.6 82.708566,89.1619542 81.8254888,88.2858626 L61.0884001,67.8487609 C60.2205483,67.0028794 59.7333333,65.8397923 59.7333333,64.6313901 L59.7333333,30.1315081 C59.7333333,27.6240736 61.7735462,25.6 64.300974,25.6 C66.8284019,25.6 68.8686147,27.6240736 68.8686147,30.1315081 L68.8686147,62.7432617 L88.2506367,81.8511211 C90.0472421,83.6184093 90.0472421,86.4883644 88.2658622,88.2556526 C87.3980105,89.1619542 86.2104239,89.6 85.0380628,89.6 L85.0380628,89.6 Z" id="路径" fill="#515151" fill-rule="nonzero"></path>
            </g>
        </g>
    </g>
</svg>