<?xml version="1.0" standalone="no"?><!DOCTYPE svg PUBLIC "-//W3C//DTD SVG 1.1//EN" "http://www.w3.org/Graphics/SVG/1.1/DTD/svg11.dtd"><svg class="icon" width="128px" height="128.00px" viewBox="0 0 1024 1024" version="1.1" xmlns="http://www.w3.org/2000/svg"><path fill="#d8d8d8" d="M656 16c83.2 0 151.968 63.616 159.36 145.76l0.48 7.104 0.16 7.136v64h129.536c31.392 0 57.216 23.68 61.76 54.336l0.544 4.896 0.16 4.768c0 31.296-22.048 57.76-52.352 63.104l-4.832 0.64-5.28 0.256H912v384a256.064 256.064 0 0 1-232 254.88l-8.032 0.64-7.936 0.352-8.032 0.128h-288a256.064 256.064 0 0 1-255.488-240.032l-0.384-7.936L112 752v-384H78.464c-31.392 0-57.216-23.68-61.76-54.336l-0.544-4.896L16 304c0-31.296 22.048-57.76 52.352-63.104l4.832-0.64 5.28-0.256H208v-64A160.064 160.064 0 0 1 346.56 17.44l7.2-0.8 7.104-0.48L368 16h288z m128 352h-544v384a128 128 0 0 0 108.992 126.624l6.464 0.768 6.144 0.448 6.4 0.16h288a128 128 0 0 0 127.36-115.072l0.48-6.528 0.16-6.4v-384z m-272 96c31.392 0 57.824 22.72 63.104 53.664l0.64 4.96 0.256 5.376v128a64 64 0 0 1-64 64c-31.392 0-57.824-22.72-63.104-53.664l-0.64-4.96L448 656v-128a64 64 0 0 1 64-64z m143.904-320H368c-15.264 0-28.16 10.72-31.232 24.608l-0.576 3.52-0.192 3.872v64h352v-64c0-14.112-9.216-26.336-21.664-30.4l-3.488-0.896-2.976-0.512-3.968-0.192z" /></svg>