<?xml version="1.0" standalone="no"?><!DOCTYPE svg PUBLIC "-//W3C//DTD SVG 1.1//EN" "http://www.w3.org/Graphics/SVG/1.1/DTD/svg11.dtd"><svg class="icon" width="128px" height="128.00px" viewBox="0 0 1024 1024" version="1.1" xmlns="http://www.w3.org/2000/svg"><path fill="#d8d8d8" d="M685.6 33.888c56.32 0 108.544 29.632 138.72 78.208l4 6.72 173.6 310.08a174.56 174.56 0 0 1 3.84 162.688l-3.84 7.264-173.6 310.08c-28.16 50.272-79.168 82.08-135.04 84.768l-7.68 0.192h-347.2c-56.32 0-108.544-29.632-138.72-78.24l-4-6.72-173.6-310.08a174.56 174.56 0 0 1-3.84-162.688l3.84-7.232 173.6-310.08c28.16-50.304 79.168-82.112 135.04-84.8l7.68-0.16h347.2z m0 135.936h-347.2c-10.464 0-20.224 5.12-26.4 13.632l-2.144 3.36-173.632 310.08a34.912 34.912 0 0 0-1.92 29.92l1.92 4.064 173.632 310.08c5.216 9.344 14.4 15.488 24.64 16.736l3.904 0.256h347.2c10.464 0 20.224-5.12 26.4-13.664l2.144-3.328 173.632-310.08c5.12-9.216 5.76-20.288 1.92-29.952l-1.92-4.032-173.632-310.08a32.928 32.928 0 0 0-24.64-16.768l-3.904-0.224zM512 384a128 128 0 1 1 0 256 128 128 0 0 1 0-256z" /></svg>