<?xml version="1.0" standalone="no"?><!DOCTYPE svg PUBLIC "-//W3C//DTD SVG 1.1//EN" "http://www.w3.org/Graphics/SVG/1.1/DTD/svg11.dtd"><svg class="icon" width="128px" height="128.00px" viewBox="0 0 1024 1024" version="1.1" xmlns="http://www.w3.org/2000/svg"><path fill="#d8d8d8" d="M94.4 133.024c-120.992 127.68-125.952 330.88-13.184 464.768l6.496 7.488 6.72 7.296 301.44 317.984a160.064 160.064 0 0 0 220.736 10.944l5.76-5.216 5.76-5.76 301.44-317.952c125.92-132.8 125.92-346.752 0-479.552a325.44 325.44 0 0 0-150.752-89.632l-13.056-3.296-3.008-0.64a64 64 0 0 0-28.992 124.576l4.832 1.152-0.128 0.064c37.088 8.64 71.712 27.904 98.24 55.84 75.04 79.168 79.04 206.72 11.072 290.752l-5.504 6.56-5.6 6.112-301.44 317.984-1.216 1.184a32.064 32.064 0 0 1-39.168 3.936l-3.072-2.304-3.008-2.816-301.44-317.984c-79.104-83.392-79.104-220 0-303.424 73.28-77.312 189.12-81.536 266.176-11.84l5.824 5.504 5.312 5.344L579.2 346.24a64 64 0 0 0 90.4 4.32 64.064 64.064 0 0 0 11.104-81.408l-3.136-4.576-3.616-4.416-115.52-127.136c-127.776-134.72-336.32-134.72-464.032 0z" /></svg>