<?xml version="1.0" standalone="no"?><!DOCTYPE svg PUBLIC "-//W3C//DTD SVG 1.1//EN" "http://www.w3.org/Graphics/SVG/1.1/DTD/svg11.dtd"><svg class="icon" width="128px" height="128.00px" viewBox="0 0 1024 1024" version="1.1" xmlns="http://www.w3.org/2000/svg"><path fill="#d8d8d8" d="M695.072 31.968c84.896-0.64 170.016 33.056 234.528 101.056a341.76 341.76 0 0 1 83.136 150.784l2.176 8.96a357.184 357.184 0 0 1-10.432 196.352l-3.168 8.736a346.624 346.624 0 0 1-20.032 43.712l-4.704 8.32c-4.032 6.944-8.352 13.76-12.928 20.48l-8.608 12-5.984 7.776-6.24 7.648-6.496 7.488-6.72 7.296-301.44 317.984a159.136 159.136 0 0 1-90.016 47.744l-10.336 1.344-5.44 0.448-7.36 0.32h-5.984l-7.36-0.32-5.536-0.448-1.92-0.224a158.976 158.976 0 0 1-91.936-42.496l-6.4-6.4-301.44-317.952-6.72-7.296-6.496-7.488a340.864 340.864 0 0 1-58.208-99.104l-2.944-8.096-2.528-7.392a356.16 356.16 0 0 1-13.28-55.424l-1.504-10.944A356.736 356.736 0 0 1 0 377.28v-9.216a363.328 363.328 0 0 1 5.024-54.976A346.304 346.304 0 0 1 56.64 180.864l6.592-9.728a337.664 337.664 0 0 1 83.808-83.168 154.72 154.72 0 0 1 197.088 18.08l253.728 253.728a64 64 0 0 0 94.24-86.464l-3.744-4.064-113.824-113.824-14.944-15.072a51.68 51.68 0 0 1 16.832-84.096c24.448-10.176 60.512-24.32 118.656-24.32z" /></svg>