<?xml version="1.0" standalone="no"?><!DOCTYPE svg PUBLIC "-//W3C//DTD SVG 1.1//EN" "http://www.w3.org/Graphics/SVG/1.1/DTD/svg11.dtd"><svg class="icon" width="128px" height="128.00px" viewBox="0 0 1024 1024" version="1.1" xmlns="http://www.w3.org/2000/svg"><path fill="#d8d8d8" d="M932.8 415.968l-4.864 0.16h-832a64 64 0 0 1-4.8-127.84l4.8-0.16h687.072l-135.68-148.896a64 64 0 0 1 0.256-86.528l3.904-3.872a64 64 0 0 1 86.528 0.256l3.872 3.936 233.344 256c36.352 39.872 9.952 103.232-42.464 106.944z m0.064 192.32c50.176 3.616 76.672 62.016 46.336 102.144l-3.104 3.84-224 256-3.808 4a64 64 0 0 1-82.176 5.472l-4.32-3.456-4-3.84a64 64 0 0 1-5.472-82.144l3.456-4.32 131.072-149.824L96 736.128l-4.8-0.192a64 64 0 0 1 0-127.648l4.8-0.16h832l4.896 0.16z" /></svg>