<?xml version="1.0" standalone="no"?><!DOCTYPE svg PUBLIC "-//W3C//DTD SVG 1.1//EN" "http://www.w3.org/Graphics/SVG/1.1/DTD/svg11.dtd"><svg class="icon" width="128px" height="128.00px" viewBox="0 0 1024 1024" version="1.1" xmlns="http://www.w3.org/2000/svg"><path fill="#d8d8d8" d="M935.776 845.248l67.872 67.904a64 64 0 1 1-90.496 90.496l-67.904-67.872a64 64 0 1 1 90.528-90.528zM464 0C720.256 0 928 207.744 928 464S720.256 928 464 928 0 720.256 0 464 207.744 0 464 0z m0 128C278.432 128 128 278.432 128 464S278.432 800 464 800 800 649.568 800 464 649.568 128 464 128z" /></svg>