<?xml version="1.0" standalone="no"?><!DOCTYPE svg PUBLIC "-//W3C//DTD SVG 1.1//EN" "http://www.w3.org/Graphics/SVG/1.1/DTD/svg11.dtd"><svg t="1635842299872" class="icon" viewBox="0 0 1024 1024" version="1.1" xmlns="http://www.w3.org/2000/svg" p-id="2930" xmlns:xlink="http://www.w3.org/1999/xlink" width="128" height="128"><defs><style type="text/css"></style></defs><path d="M512 0c282.784 0 512 229.216 512 512s-229.216 512-512 512C273.472 1024 73.024 860.896 16.16 640.096h719.776l4.832-0.128c52.416-3.712 78.816-67.072 42.464-106.944l-233.344-256-3.872-3.936a64 64 0 0 0-86.528-0.256l-3.904 3.872a64 64 0 0 0-0.288 86.528l135.712 148.896L0 512.096V512C0 229.216 229.216 0 512 0z" p-id="2931"></path></svg>