<?xml version="1.0" standalone="no"?><!DOCTYPE svg PUBLIC "-//W3C//DTD SVG 1.1//EN" "http://www.w3.org/Graphics/SVG/1.1/DTD/svg11.dtd"><svg class="icon" width="128px" height="128.00px" viewBox="0 0 1024 1024" version="1.1" xmlns="http://www.w3.org/2000/svg"><path fill="#d8d8d8" d="M361.139381 96.314498C400.835925 11.995329 500.509114-23.670783 583.772694 16.569548a167.93461 167.93461 0 0 1 74.978805 72.387814l3.710555 7.357136 67.525707 143.272213 151.39705 23.031032c91.19649 13.882594 154.052016 100.05704 140.329359 192.469058a170.173739 170.173739 0 0 1-40.528219 87.54991l-6.077634 6.525459-112.884046 115.187149 26.58165 162.304803c15.130109 92.188104-46.38194 179.322176-137.354517 194.64421a165.023744 165.023744 0 0 1-99.449277-14.298433l-7.613036-3.966455L511.800718 930.037867l-132.620361 72.995577c-81.024451 44.622625-182.392981 14.20247-226.407843-67.909558a171.133365 171.133365 0 0 1-19.192527-99.865115l1.183539-8.604649 26.549663-162.304803-112.820071-115.187149a170.813489 170.813489 0 0 1 0.831676-239.266835 166.335233 166.335233 0 0 1 84.127243-45.710202l8.7326-1.56739 151.39705-23.031032L361.139381 96.28251z" /></svg>