<?xml version="1.0" standalone="no"?><!DOCTYPE svg PUBLIC "-//W3C//DTD SVG 1.1//EN" "http://www.w3.org/Graphics/SVG/1.1/DTD/svg11.dtd"><svg class="icon" width="128px" height="128.00px" viewBox="0 0 1024 1024" version="1.1" xmlns="http://www.w3.org/2000/svg"><path fill="#d8d8d8" d="M591.944505 900.011624c35.356685 0 63.994001 27.741399 63.994001 62.010186 0 32.63694-26.109552 59.450427-59.194451 61.818205L591.944505 1024h-159.985001c-35.356685 0-63.994001-27.741399-63.994001-62.010187 0-32.63694 26.109552-59.450427 59.194451-61.818204l4.79955-0.159985h159.985001zM511.952004 0.095991c74.265038 0 140.37084 39.452301 171.727901 101.142518l3.1997 6.71937 1.439865 3.359685 5.535481 2.527763c116.981033 55.514795 188.014374 146.674249 201.581102 264.10324l1.055901 10.431022 0.735931 10.559011 0.447958 10.910977 0.127988 10.079055v96.950911c0.063994 11.486923 0.63994 24.701684 1.791832 37.340499l1.27988 12.382839 0.351967 2.719745 5.503484 3.1997c33.59685 20.638065 57.530607 53.019029 65.945818 90.871481l1.471862 7.67928 1.023904 7.295316 0.607943 7.935256 0.159985 6.975346c0 75.192951-60.410337 136.21123-137.107147 143.090585l-7.007343 0.479955-6.943349 0.159985H199.117333c-82.584258 0-151.089835-63.610037-151.089836-143.730525 0-50.267287 26.013561-94.967097 68.69756-121.076649l6.015436-3.51967 0.95991-8.095241 0.63994-6.3994 0.735931-9.855076 0.767928-14.110677 0.31997-9.215136v-101.110521c0-132.947536 71.673281-239.657532 196.237603-302.211668l13.086773-6.335406 1.439865-3.295691c27.389432-60.762304 88.471706-101.97444 159.153079-107.349936l7.903259-0.447958L511.952004 0.095991z m0 123.988376c-32.252976 0-57.274631 19.742149-61.562228 46.235665l-0.511952 4.479581-0.159985 4.383589v22.205918l-18.622254 5.951442c-104.21423 34.428772-169.264131 101.462488-176.303472 195.085711l-0.447958 8.575196-0.159985 8.927163v97.238884l-0.191982 10.047058-0.799925 19.070212-0.831922 12.094866-1.151892 13.214761-1.59985 13.598725c-7.071337 54.202918-19.902134 86.61588-50.491266 88.311721-14.270662 0-23.101834 8.159235-23.101834 19.774146 0 8.863169 7.295316 16.798425 16.734431 19.070212l3.231697 0.511952 3.135706 0.159985h625.029403l3.103709-0.095991c11.742899-1.087898 20.702059-9.791082 20.702059-19.646158 0-9.631097-8.575196-18.078305-19.646158-19.51817l-3.423679-0.255976c-27.357435 0-40.63619-26.077555-48.155485-71.417305l-2.015811-13.502734-1.535856-12.734806-1.247883-13.054776-0.895916-12.254851-0.799925-15.806518-0.383964-14.270662v-100.310596l-0.159985-8.671187c-3.1997-96.374965-62.266163-162.928725-166.320408-200.493204l-9.5991-3.327688-19.51817-6.335406 0.031997-21.565978-0.159985-4.383589c-2.143799-29.245258-28.15736-51.291191-62.170172-51.291192z" /></svg>