<?xml version="1.0" standalone="no"?><!DOCTYPE svg PUBLIC "-//W3C//DTD SVG 1.1//EN" "http://www.w3.org/Graphics/SVG/1.1/DTD/svg11.dtd"><svg t="1632976292506" class="icon" viewBox="0 0 1024 1024" version="1.1" xmlns="http://www.w3.org/2000/svg" p-id="3039" xmlns:xlink="http://www.w3.org/1999/xlink" width="128" height="128"><defs><style type="text/css"></style></defs><path d="M768 0a256 256 0 0 1 256 256v512a256 256 0 0 1-256 256H256a256 256 0 0 1-256-256V256a256 256 0 0 1 256-256h512z m-256 128C283.616 128 96 290.432 96 493.472c0 110.176 53.6 212.704 145.92 278.08l9.056 6.208-16.96 101.216-0.224 2.976 0.064 3.328c0.672 7.904 5.44 16.064 25.28 6.176 3.84-1.92 9.472-5.632 16.32-10.4l36.384-26.08 13.408-9.28c11.168-7.552 22.176-14.432 31.776-19.2 48.96 16.224 97.888 24.32 154.976 24.32 228.384 0.032 416-170.56 416-365.44 0-56.864-16.32-113.728-40.768-162.432l-29.376 16.64-45.28 26.368-90.496 53.6-202.4 120.64-49.92 29.056-22.944 12.992-14.08 7.68-10.976 5.664-5.472 2.56-2.176 0.928c-34.432 17.152-48.672 2.112-54.08-8.32l-1.44-3.072-1.216-3.52-0.352-1.344-65.28-146.176c-14.4-38.24-3.36-39.904 8.128-34.816l3.456 1.696 4.896 2.912 5.216 3.648 2.784 2.176 65.28 48.736c23.392 17.504 46.816 14.08 58.176 10.72l3.872-1.28 2.4-0.96 408.64-187.168C781.184 192.992 650.656 128 512 128z" p-id="3040"></path></svg>