<?xml version="1.0" standalone="no"?><!DOCTYPE svg PUBLIC "-//W3C//DTD SVG 1.1//EN" "http://www.w3.org/Graphics/SVG/1.1/DTD/svg11.dtd"><svg class="icon" width="128px" height="128.00px" viewBox="0 0 1024 1024" version="1.1" xmlns="http://www.w3.org/2000/svg"><path fill="#d8d8d8" d="M512 16C785.92 16 1008 238.08 1008 512c0 273.92-222.08 496-496 496C238.08 1008 16 785.92 16 512 16 238.08 238.08 16 512 16z m0 128C308.768 144 144 308.768 144 512S308.768 880 512 880 880 715.232 880 512 715.232 144 512 144z m0 544a64 64 0 1 1 0 128 64 64 0 0 1 0-128z m0-480c111.936 0 193.952 76.192 193.952 180.192 0 69.696-35.648 124.224-100.768 154.88-17.76 8.352-30.08 24.96-33.024 43.68l-0.544 4.736-0.192 4.8a59.744 59.744 0 1 1-119.456 0 178.336 178.336 0 0 1 89.312-154.496l6.464-3.552 6.56-3.264c23.616-11.104 32.192-23.872 32.192-46.784 0-36.704-27.52-60.736-74.496-60.736-41.92 0-72.32 28.48-74.688 66.848l-0.16 4.832a59.744 59.744 0 1 1-119.456 0C317.696 292.704 401.984 208 512 208z" /></svg>