<?xml version="1.0" standalone="no"?><!DOCTYPE svg PUBLIC "-//W3C//DTD SVG 1.1//EN" "http://www.w3.org/Graphics/SVG/1.1/DTD/svg11.dtd"><svg t="1637735274364" class="icon" viewBox="0 0 1024 1024" version="1.1" xmlns="http://www.w3.org/2000/svg" p-id="3106" xmlns:xlink="http://www.w3.org/1999/xlink" width="128" height="128"><defs><style type="text/css"></style></defs><path d="M557.28 351.808a82.208 82.208 0 0 1-82.56-82.08c0-44.256 35.68-81.024 82.56-81.024 45.312 0 82.048 36.8 82.048 81.024 0 44.224-36.736 82.08-82.048 82.08m68.736 417.376c-24.544 22.912-87.904 65.44-191.808 51.2-51.68-7.104-62.784-45.312-58.624-87.968 4.352-44.224 28.16-96.8 43.2-126.336 28.64-56.32 50.56-144.48-3.744-144.48-6.944 0-18.304-4.096 6.912-17.568 29.664-15.84 73.504-37.696 116.672-32.512 72.448 8.672 85.44 88.064 52.736 151.36-33.888 65.696-63.136 144.832-51.136 171.68 8.288 18.496 48.48 24 74.592 24 14.912 0 18.624 3.68 11.2 10.624M874.24 149.248C772 46.912 654.24 0 512 0 369.76 0 251.968 46.912 149.696 149.248 47.424 251.616 0 369.408 0 511.744c0 142.848 47.424 260.64 149.696 363.008C252 977.088 369.76 1024 512 1024c142.24 0 260-46.912 362.272-149.248C976.576 772.384 1024 654.592 1024 511.744c0-142.336-47.424-260.16-149.728-362.496" p-id="3107"></path></svg>