<?xml version="1.0" standalone="no"?><!DOCTYPE svg PUBLIC "-//W3C//DTD SVG 1.1//EN" "http://www.w3.org/Graphics/SVG/1.1/DTD/svg11.dtd"><svg class="icon" width="128px" height="128.00px" viewBox="0 0 1024 1024" version="1.1" xmlns="http://www.w3.org/2000/svg"><path fill="#d8d8d8" d="M327.23264 93.696a64 64 0 0 1-19.712 88.32A386.88 386.88 0 0 0 128.00064 509.376C128.00064 722.944 300.00064 896 512.00064 896s384-173.024 384-386.656a386.88 386.88 0 0 0-178.624-326.72 64 64 0 1 1 68.928-107.904A514.88 514.88 0 0 1 1024.00064 509.344C1024.00064 793.504 794.88064 1024 512.00064 1024S0.00064 793.504 0.00064 509.344A514.88 514.88 0 0 1 238.88064 73.984a64 64 0 0 1 88.32 19.712zM512.00064 32a64 64 0 0 1 64 64v421.44l50.752-50.688a64 64 0 0 1 86.432-3.744l4.064 3.744a64 64 0 0 1 3.744 86.432l-3.744 4.064-160 160a64 64 0 0 1-86.432 3.744l-4.064-3.744-160-160a64 64 0 0 1 86.432-94.24l4.064 3.744L448.00064 517.44V96a64 64 0 0 1 64-64z" /></svg>