<?xml version="1.0" standalone="no"?><!DOCTYPE svg PUBLIC "-//W3C//DTD SVG 1.1//EN" "http://www.w3.org/Graphics/SVG/1.1/DTD/svg11.dtd"><svg class="icon" width="128px" height="128.00px" viewBox="0 0 1024 1024" version="1.1" xmlns="http://www.w3.org/2000/svg"><path fill="#d8d8d8" d="M996.048782 360.448a56.888889 56.888889 0 0 1 20.48 77.824 177.976889 177.976889 0 0 1-6.883555 10.752l-6.257778 8.760889c-4.636444 6.229333-10.211556 13.226667-16.725333 20.821333-10.154667 11.861333-21.390222 23.665778-33.706667 35.299556l44.828444 44.885333a56.888889 56.888889 0 0 1 3.328 76.8l-3.356444 3.640889a56.775111 56.775111 0 0 1-76.686222 3.271111l-3.612445-3.299555-56.291555-56.32a581.888 581.888 0 0 1-97.820445 46.592l26.254222 45.539555a56.888889 56.888889 0 0 1-17.066666 75.320889l-3.783111 2.389333c-25.884444 14.933333-58.595556 7.196444-75.207111-17.066666l-2.360889-3.754667-41.585778-72.078222c-42.951111 7.509333-88.718222 11.463111-137.329778 11.463111-41.301333 0-80.554667-2.844444-117.76-8.334222l-39.765333 68.977777-2.389334 3.783112a56.803556 56.803556 0 0 1-75.207111 16.981333 56.888889 56.888889 0 0 1-22.897777-73.728l2.076444-3.953778 22.641778-39.310222a585.415111 585.415111 0 0 1-119.523556-55.210667l-58.652444 58.709334c-22.243556 22.186667-58.197333 22.186667-80.355556 0a56.888889 56.888889 0 0 1-3.328-76.8l3.328-3.612445 47.872-48.014222a455.736889 455.736889 0 0 1-39.509333-43.093333l-7.623111-9.898667-6.257778-8.760889-4.949333-7.509333-1.962667-3.242667a56.888889 56.888889 0 0 1 95.914667-61.098667l3.214222 5.12 2.531555 3.754667 3.697778 5.034667 4.835556 6.229333 6.087111 7.281778a376.604444 376.604444 0 0 0 67.584 61.070222C272.137671 522.894222 377.41056 557.511111 512.265671 557.511111c134.826667 0 240.128-34.616889 320.398222-91.847111a376.604444 376.604444 0 0 0 67.584-61.070222l3.185778-3.783111 5.489778-6.769778 4.266667-5.632 4.209777-6.115556 0.853334-1.365333a56.888889 56.888889 0 0 1 77.795555-20.48z" /></svg>