<?xml version="1.0" standalone="no"?><!DOCTYPE svg PUBLIC "-//W3C//DTD SVG 1.1//EN" "http://www.w3.org/Graphics/SVG/1.1/DTD/svg11.dtd"><svg class="icon" width="128px" height="128.00px" viewBox="0 0 1024 1024" version="1.1" xmlns="http://www.w3.org/2000/svg"><path fill="#d8d8d8" d="M512.064 16l24.128 0.16 23.392 0.544 22.72 0.864 11.136 0.576 10.944 0.672 21.408 1.6 20.736 2.016 10.112 1.12 19.776 2.56 19.104 2.976c200.064 33.504 292.736 134.272 319.776 334.56l1.408 11.04 2.144 19.456 1.344 14.976 1.152 15.36 1.184 20.928c0.48 9.472 0.832 19.104 1.088 28.928l0.288 14.848 0.16 22.816-0.032 11.488-0.32 22.496-0.512 16.48-0.64 16.128-1.216 20.96-1.152 15.328-1.344 14.976-2.144 19.456c-24.672 203.936-114.24 307.744-310.4 343.68l-10.784 1.92-19.104 2.944-19.776 2.56-10.112 1.152-20.736 1.984-21.408 1.6-10.944 0.704-11.104 0.576-22.72 0.864-23.424 0.544-24.128 0.16-24.096-0.16-23.424-0.544-22.72-0.864-11.136-0.576-10.944-0.672-21.376-1.6-20.736-2.016-10.144-1.12-19.744-2.56-19.136-2.976c-193.76-32.448-286.784-128-317.024-316L9.952 668.192l-2.528-18.88c-1.28-10.656-2.4-21.568-3.328-32.768l-1.28-16.992-1.216-20.96-0.48-10.72-0.672-21.888-0.32-22.496v-22.976l0.32-22.496 0.32-11.008 0.832-21.6 1.216-20.96c0.768-11.456 1.696-22.656 2.816-33.6l1.792-16.16 2.528-18.88C37.792 164.32 127.776 65.856 317.76 31.04l10.88-1.92 19.104-2.944 19.744-2.56L377.632 22.4l20.736-1.984 21.376-1.6 10.944-0.704 11.136-0.576 22.72-0.864 23.424-0.544L512.032 16z m142.176 544.384l-4.064 3.424-3.2 3.136-160 170.368a114.72 114.72 0 0 1-158.08 8.704l-4.832-4.384-4.32-4.352-14.528-15.52-2.784-2.752a58.688 58.688 0 0 0-75.68-4l-4.064 3.424-3.2 3.168-46.176 49.152c31.072 53.408 81.92 80.8 165.888 96.096l8.96 1.568 16.032 2.528 25.664 3.2 18.144 1.792 20.16 1.504 12.736 0.768 26.528 1.12 21.44 0.512 22.272 0.16 22.176-0.128 21.312-0.48 21.632-0.832 18.496-1.024 18.816-1.376 26.624-2.656 16.672-2.144 17.504-2.688c115.424-19.328 171.744-58.976 199.2-151.584l-142.24-151.36-1.408-1.376a58.688 58.688 0 0 0-75.68-3.968zM512.032 143.968l-21.216 0.16-21.312 0.48-21.632 0.832-18.496 1.024-18.784 1.376-26.624 2.656-16.704 2.144-17.504 2.688c-137.696 23.04-190.208 74.752-211.552 208.32l-1.376 9.056-2.336 17.376c-1.088 9.024-2.048 18.432-2.848 27.776l-1.056 13.984-1.088 18.656-0.8 19.936-0.256 9.504-0.32 20.576v21.056l0.256 20.448 0.992 29.184 1.152 19.744 0.64 8.96 1.888 21.12 1.312 12.192 1.376-1.376a181.344 181.344 0 0 1 250.688-2.24l4.064 3.936 3.968 4.096 8.896 9.504 154.24-164.16a181.344 181.344 0 0 1 256.32-8.032l4.064 3.936 3.936 4.096 73.216 77.92 0.576-16.832 0.32-21.504 0.032-9.6-0.16-21.856-0.448-20-0.704-18.304-1.12-19.744-0.992-13.216-1.056-11.776-1.92-17.984c-18.304-151.04-68.32-208.096-204.864-232.96l-8.832-1.536-16.032-2.528-18.304-2.368-7.36-0.832-18.112-1.792-20.16-1.504-12.736-0.768-26.56-1.12-21.44-0.512-23.232-0.192zM352.352 256a96 96 0 1 1 0 192 96 96 0 0 1 0-192z" /></svg>